<?xml version="1.0" encoding="utf-8"?>
<!-- Generator: Adobe Illustrator 23.0.1, SVG Export Plug-In . SVG Version: 6.00 Build 0)  -->
<svg version="1.1" id="Layer_1" xmlns="http://www.w3.org/2000/svg" xmlns:xlink="http://www.w3.org/1999/xlink" x="0px" y="0px"
	 viewBox="0 0 176.8 124.3" style="enable-background:new 0 0 176.8 124.3;" xml:space="preserve">
<style type="text/css">
	.st0{fill:#1C191C;}
	.st1{fill:#F7F7F8;}
	.st2{fill:#F9F9FA;}
	.st3{fill-rule:evenodd;clip-rule:evenodd;fill:#FAF9F8;}
	.st4{fill-rule:evenodd;clip-rule:evenodd;fill:#979593;}
	.st5{fill-rule:evenodd;clip-rule:evenodd;fill:#C8C6C4;}
	.st6{fill-rule:evenodd;clip-rule:evenodd;fill:#FFC480;}
	.st7{fill:#323130;}
	.st8{fill-rule:evenodd;clip-rule:evenodd;fill:#FFE7BB;}
	.st9{fill:#59A0B7;}
	.st10{fill:#FFC17A;}
	.st11{fill:#AAD7A2;}
	.st12{fill:#C1476A;}
</style>
<title>appstore-play_3</title>
<polygon class="st0" points="176.8,124.3 0,124.3 0,124.3 0,66.6 0,66.6 176.4,66.6 "/>
<path class="st1" d="M137,94.6c-1-0.1-1.9,0.3-2.5,1c-0.6,0.9-0.9,2-0.8,3.1V99c-0.1,1.2,0.2,2.4,0.8,3.4c0.6,0.7,1.6,1.1,2.6,1
	c0.9,0,1.8-0.4,2.3-1.2c0.6-1,0.9-2.1,0.8-3.3c0.1-1.1-0.2-2.3-0.8-3.3C138.8,94.9,137.9,94.5,137,94.6z M137.2,104.9
	c-0.7,0-1.4-0.1-2-0.4c-0.6-0.3-1.1-0.7-1.5-1.3h-0.1c0.1,0.6,0.1,1.3,0.1,1.9v4.7H132V93.3h1.4l0.2,1.6h0.1c0.4-0.6,0.9-1,1.5-1.3
	c0.6-0.3,1.3-0.4,2-0.4c1.3-0.1,2.6,0.5,3.5,1.6c0.9,1.3,1.3,2.8,1.3,4.3c0.1,1.6-0.3,3.1-1.2,4.3
	C139.9,104.4,138.6,105,137.2,104.9L137.2,104.9z"/>
<polygon class="st1" points="146,104.7 144.3,104.7 144.3,88.6 146,88.6 146,104.7 "/>
<path class="st1" d="M152,103.5c0.9,0.1,1.8-0.3,2.5-0.9c0.6-0.7,1-1.6,0.9-2.5v-1l-1.7,0.1c-1,0-2.1,0.2-3,0.6
	c-0.6,0.4-1,1.1-0.9,1.8c0,0.5,0.2,1.1,0.6,1.4C150.8,103.4,151.4,103.5,152,103.5L152,103.5z M155.9,104.7l-0.3-1.6h-0.1
	c-0.4,0.6-1,1.1-1.7,1.4c-0.7,0.3-1.4,0.4-2.1,0.4c-1,0-1.9-0.3-2.7-0.9c-0.7-0.6-1-1.5-1-2.5c0-2.3,1.8-3.5,5.5-3.6l1.9-0.1v-0.7
	c0.1-0.7-0.1-1.4-0.6-2c-0.5-0.5-1.2-0.7-1.8-0.6c-1.1,0-2.2,0.3-3.2,0.9l-0.5-1.3c0.6-0.3,1.2-0.6,1.8-0.7c0.7-0.2,1.3-0.3,2-0.3
	c1.1-0.1,2.1,0.2,3,0.9c0.7,0.8,1.1,1.8,1,2.9v7.8L155.9,104.7z"/>
<path class="st1" d="M158.2,93.3h1.8l2.5,6.5c0.4,1,0.7,2.1,1,3.2h0.1c0.1-0.3,0.3-1,0.6-1.8s1.2-3.5,2.8-7.9h1.9l-4.9,12.9
	c-0.3,1-0.9,2-1.7,2.7c-0.7,0.5-1.5,0.8-2.4,0.8c-0.5,0-1-0.1-1.6-0.2v-1.4c0.4,0.1,0.9,0.1,1.3,0.1c1.2,0,2.2-0.8,2.5-2l0.6-1.6
	L158.2,93.3L158.2,93.3z"/>
<path class="st1" d="M104.4,100.4c0.4-0.5,0.6-1.1,0.6-1.7c0-1.7-1-4.4-3-4.4c-0.6,0-1.2,0.3-1.7,0.8c-0.4,0.5-0.6,1.1-0.5,1.8
	c0,1.6,0.9,4.2,3,4.2C103.4,101.1,104,100.8,104.4,100.4L104.4,100.4z M103.7,104.9c-0.2,0-0.4,0-0.5,0c-0.8,0-1.7,0.1-2.5,0.4
	c-1.1,0.3-1.9,1.3-2,2.4c0,1.7,1.6,2.9,4.2,2.9c2.3,0,3.5-1.1,3.5-2.6C106.3,106.9,105.6,106.2,103.7,104.9L103.7,104.9z
	 M105.4,94.4c1.8,1.2,2.2,3.6,1,5.4c-0.3,0.5-0.8,0.9-1.3,1.2c-0.4,0.3-0.6,0.7-0.7,1.2c0,0.4,0.3,0.8,0.6,1l0.9,0.7
	c1,0.9,2,1.7,2,3.3c0,2.2-2.2,4.5-6.3,4.5c-3.4,0-5.1-1.6-5.1-3.4c0-1.2,0.7-2.3,1.8-2.9c1.4-0.7,3-1.1,4.5-1.1
	c-0.4-0.4-0.7-1-0.7-1.6c0-0.3,0.1-0.6,0.2-0.9c-0.3,0-0.5,0-0.8,0c-2.1,0.1-3.9-1.4-4-3.5c0-0.1,0-0.1,0-0.2c0-1.2,0.6-2.4,1.5-3.2
	c1.2-0.9,2.7-1.4,4.3-1.3h4.9l-1.5,0.8L105.4,94.4z"/>
<path class="st1" d="M93.4,102.6c0.5-0.8,0.8-1.7,0.7-2.6c0-2.1-1-6.1-3.9-6.1c-0.8,0-1.5,0.3-2.1,0.8c-0.8,0.8-1.1,1.8-1,2.9
	c0,2.3,1.2,6.2,4,6.2C92,103.8,92.8,103.4,93.4,102.6L93.4,102.6z M90.4,104.6c-3.1,0.1-5.7-2.4-5.7-5.4c0,0,0-0.1,0-0.1
	c0.1-3.2,2.7-5.8,6-5.8c0.1,0,0.1,0,0.2,0c3.1-0.1,5.6,2.4,5.7,5.4c0,0.1,0,0.1,0,0.2c0,3.2-2.6,5.8-5.8,5.8
	C90.6,104.6,90.5,104.6,90.4,104.6L90.4,104.6z"/>
<path class="st1" d="M80.5,102.6c0.5-0.8,0.8-1.7,0.7-2.6c0-2.1-1-6.1-3.9-6.1c-0.8,0-1.5,0.3-2.1,0.8c-0.8,0.8-1.2,1.8-1.1,2.9
	c0,2.3,1.2,6.2,4,6.2C79,103.8,79.9,103.4,80.5,102.6L80.5,102.6z M77.5,104.6c-3.1,0.1-5.7-2.4-5.8-5.5c0,0,0-0.1,0-0.1
	c0.1-3.2,2.7-5.8,6-5.8c0.1,0,0.1,0,0.2,0c3.1-0.1,5.6,2.4,5.7,5.4c0,0.1,0,0.1,0,0.2c0,3.2-2.6,5.8-5.8,5.8
	C77.7,104.6,77.7,104.6,77.5,104.6L77.5,104.6z"/>
<path class="st1" d="M70,104.2l-3.4,0.8c-1.3,0.2-2.6,0.4-3.9,0.4c-6.6,0-9.1-4.8-9.1-8.6c0-4.6,3.6-8.9,9.6-8.9
	c1.2,0,2.5,0.2,3.7,0.5c1.1,0.3,2.2,0.8,3.2,1.5l-2,1.9l-0.8,0.2l0.6-1c-1.3-1.4-3.2-2.3-5.1-2.2c-3.8,0-6.6,2.9-6.6,7
	c-0.1,4.7,3.5,8.5,8.2,8.7c0.1,0,0.2,0,0.3,0c1,0,2.1-0.2,3-0.6V100l-3.6,0.2l1.9-1h5.1l-0.6,0.6c-0.1,0.1-0.2,0.2-0.2,0.4
	c0,0.2,0,0.9,0,1.1L70,104.2L70,104.2z"/>
<path class="st1" d="M112.9,103.5c-0.8-0.1-1-0.2-1-1.2V88.8c0,0,0-0.1,0-0.2c0.1-0.8,0.3-1,1.1-1.4h-3.4l-1.8,0.9h1.8v14.7
	c0,0.5-0.1,0.6-0.7,1.3h4.2l0.9-0.5L112.9,103.5L112.9,103.5z"/>
<path class="st1" d="M120.4,96.7c0.4-0.2,0.7-0.3,0.7-0.6c-0.2-1.2-1.2-2-2.3-2c-1,0-2.7,0.7-2.7,3.3c0,0.4,0,0.8,0.1,1.3
	L120.4,96.7L120.4,96.7z M122.7,103.7c-0.3,0.1-0.5,0.3-0.8,0.4c-0.7,0.3-1.5,0.5-2.3,0.5c-1.1,0.1-2.2-0.3-3.2-0.9
	c-1.6-1.2-2.5-3-2.4-5c-0.1-3,2.3-5.4,5.3-5.5c0.1,0,0.1,0,0.2,0c0.9,0,1.7,0.2,2.4,0.7c0.8,0.6,1.4,1.4,1.7,2.3l-5.5,2.2l-1.8,0.1
	c0.6,3,2.6,4.8,4.9,4.8c1,0,2-0.3,2.9-0.8L122.7,103.7L122.7,103.7z"/>
<polygon class="st1" points="124.9,93.4 124.9,94.9 124.8,94.9 124.8,93.4 124.2,93.4 124.2,93.2 125.4,93.2 125.4,93.4 124.9,93.4 
	"/>
<polygon class="st1" points="127.1,94.9 127.1,93.3 127.1,93.3 126.6,94.9 126.4,94.9 125.9,93.3 125.9,93.3 125.9,94.9 125.8,94.9 
	125.8,93.2 126.1,93.2 126.5,94.6 126.5,94.6 126.9,93.2 127.2,93.2 127.2,94.9 127.1,94.9 "/>
<path class="st2" d="M56.6,81.1c-0.4-1.3-0.6-2-0.6-2.1h0c-0.2,0.7-0.4,1.4-0.7,2.1H56.6z M58.3,83.2h-1.2c-0.1-0.5-0.2-0.9-0.3-1.4
	H55c-0.2,0.4-0.3,0.9-0.3,1.4h-1.1c0-0.1,0.3-0.9,0.9-2.4c0.3-0.8,0.6-1.6,0.9-2.4h1.4c0.2,0.8,0.5,1.6,0.8,2.4
	C57.8,81.6,58.1,82.4,58.3,83.2z"/>
<path class="st2" d="M63,83.2h-0.9c-0.3-0.6-0.6-1.1-1-1.6c-0.5-0.6-0.9-1.3-1.2-2.1h-0.1c0.1,0.5,0.1,1,0.1,1.5c0,0.6,0,1.4,0,2.2
	H59c0-0.8,0.1-1.6,0.1-2.5c0-0.9,0-1.7-0.1-2.3h1.1c0.2,0.6,0.5,1.1,0.9,1.6c0.5,0.6,0.8,1.3,1.1,2l0,0c-0.1-0.5-0.1-1-0.1-1.5
	c0-0.7,0-1.4,0-2.1H63c0,0.6,0,1.4,0,2.3S63,82.5,63,83.2L63,83.2z"/>
<path class="st2" d="M67.4,80.8c0-0.4-0.1-0.9-0.4-1.2c-0.3-0.3-0.8-0.5-1.3-0.5h-0.4c0,0.5,0,1,0,1.6s0,1.2,0,1.8
	c0.2,0,0.3,0,0.5,0c0.4,0.1,0.9-0.1,1.2-0.4C67.3,81.7,67.4,81.2,67.4,80.8L67.4,80.8z M68.4,80.6c0,0.7-0.2,1.3-0.7,1.8
	c-0.5,0.5-1.2,0.8-1.9,0.8c-0.4,0-0.9,0-1.5,0c0-0.7,0-1.6,0-2.5s0-1.7,0-2.3h1.5c0.7-0.1,1.4,0.2,1.9,0.7
	C68.2,79.5,68.4,80.1,68.4,80.6L68.4,80.6z"/>
<path class="st2" d="M72,79.8c0-0.5-0.3-0.7-1-0.7c-0.2,0-0.4,0-0.6,0c0,0.4,0,0.9,0,1.5h0.3C71.5,80.5,71.9,80.3,72,79.8L72,79.8z
	 M73.4,83.2h-1.1c-0.1-0.6-0.4-1.1-0.7-1.6c-0.2-0.2-0.5-0.3-0.7-0.3h-0.4c0,0.7,0,1.3,0,1.9h-1c0-0.7,0.1-1.6,0.1-2.5
	s0-1.7-0.1-2.3h1.8c1.1,0,1.7,0.4,1.7,1.2c0,0.6-0.4,1.1-1,1.3l0,0c0.3,0.1,0.5,0.3,0.7,0.6C72.9,82,73.2,82.5,73.4,83.2L73.4,83.2z
	"/>
<path class="st2" d="M77.7,80.8c0-0.5-0.1-0.9-0.4-1.3c-0.2-0.3-0.6-0.5-1-0.5c-0.4,0-0.7,0.2-0.9,0.5c-0.5,0.7-0.5,1.7,0,2.5
	c0.2,0.3,0.6,0.5,1,0.5c0.4,0,0.7-0.2,0.9-0.5C77.5,81.6,77.7,81.2,77.7,80.8L77.7,80.8z M78.7,80.7c0,0.7-0.2,1.4-0.7,1.9
	c-0.4,0.5-1.1,0.8-1.7,0.8c-0.6,0-1.2-0.2-1.6-0.7c-0.4-0.5-0.6-1.1-0.6-1.7c0-0.7,0.2-1.4,0.7-1.9c0.4-0.5,1.1-0.8,1.7-0.8
	c0.6,0,1.2,0.2,1.6,0.7C78.5,79.4,78.7,80,78.7,80.7L78.7,80.7z"/>
<path class="st2" d="M80.8,83.2h-1c0-0.8,0-1.6,0-2.5s0-1.7,0-2.3h1c0,0.6,0,1.4,0,2.3S80.8,82.4,80.8,83.2z"/>
<path class="st2" d="M85.1,80.8c0-0.4-0.1-0.9-0.4-1.2c-0.3-0.3-0.8-0.5-1.3-0.5H83c0,0.5,0,1,0,1.6s0,1.2,0,1.8c0.2,0,0.3,0,0.5,0
	c0.5,0.1,0.9-0.1,1.3-0.4C85,81.7,85.1,81.2,85.1,80.8L85.1,80.8z M86.1,80.6c0,0.7-0.2,1.3-0.7,1.8c-0.5,0.5-1.2,0.8-1.9,0.8
	c-0.4,0-0.9,0-1.5,0c0-0.7,0.1-1.6,0.1-2.5s0-1.7-0.1-2.3h1.5c0.7-0.1,1.4,0.2,1.9,0.7C85.9,79.5,86.2,80.1,86.1,80.6L86.1,80.6z"/>
<path class="st2" d="M91.6,81.1c-0.3-0.7-0.5-1.4-0.6-2.1h-0.1c0,0.1-0.2,0.8-0.7,2.1L91.6,81.1z M93.3,83.2h-1.2
	c-0.1-0.5-0.2-0.9-0.3-1.4H90c-0.2,0.4-0.3,0.9-0.3,1.4h-1.1c0-0.1,0.3-0.9,0.9-2.4c0.3-0.8,0.6-1.6,0.9-2.4h1.4
	c0.2,0.8,0.5,1.6,0.8,2.4C92.8,81.6,93.1,82.4,93.3,83.2z"/>
<path class="st2" d="M96.6,79.8c0-0.5-0.3-0.8-1-0.8c-0.2,0-0.4,0-0.6,0.1c0,0.5,0,1,0,1.6h0.2C96.2,80.7,96.6,80.4,96.6,79.8
	L96.6,79.8z M97.6,79.6c0,0.5-0.2,1-0.7,1.3c-0.5,0.3-1,0.4-1.6,0.4h-0.2c0,0.5,0,1.1,0,1.8h-1c0-0.7,0.1-1.6,0.1-2.5s0-1.7-0.1-2.3
	h1.8c0.4,0,0.8,0.1,1.2,0.3C97.5,78.9,97.7,79.3,97.6,79.6L97.6,79.6z"/>
<path class="st2" d="M101.1,79.8c0-0.5-0.3-0.8-1.1-0.8c-0.2,0-0.4,0-0.6,0.1c0,0.5,0,1,0,1.6h0.2C100.6,80.7,101,80.4,101.1,79.8
	L101.1,79.8z M102.1,79.6c0,0.5-0.2,1-0.7,1.3c-0.5,0.3-1.1,0.4-1.6,0.4h-0.2c0,0.5,0,1.1,0,1.8h-1c0-0.7,0-1.6,0-2.5s0-1.7,0-2.3
	h1.8c0.4,0,0.8,0.1,1.2,0.3C101.9,78.9,102.1,79.3,102.1,79.6L102.1,79.6z"/>
<path class="st2" d="M108.3,80.8c0-0.5-0.1-0.9-0.4-1.3c-0.2-0.3-0.6-0.5-1-0.5c-0.4,0-0.7,0.2-0.9,0.5c-0.5,0.8-0.5,1.7,0,2.5
	c0.2,0.3,0.6,0.5,1,0.5c0.4,0,0.7-0.2,0.9-0.5C108.2,81.6,108.3,81.2,108.3,80.8L108.3,80.8z M109.3,80.7c0,0.7-0.2,1.4-0.7,1.9
	c-0.4,0.5-1.1,0.8-1.7,0.8c-0.6,0-1.2-0.2-1.6-0.7c-0.4-0.5-0.7-1.1-0.7-1.8c0-0.7,0.2-1.4,0.7-1.9c0.4-0.5,1.1-0.8,1.7-0.8
	c0.6,0,1.2,0.2,1.6,0.7C109.1,79.4,109.3,80,109.3,80.7z"/>
<path class="st2" d="M114.3,83.2h-0.9c-0.3-0.6-0.6-1.1-1-1.6c-0.5-0.6-0.9-1.3-1.2-2.1h-0.1c0.1,0.5,0.1,1,0.1,1.5
	c0,0.6,0,1.4,0.1,2.2h-0.9c0-0.8,0.1-1.6,0.1-2.5c0-0.9,0-1.7-0.1-2.3h1.1c0.2,0.6,0.5,1.1,0.9,1.6c0.5,0.6,0.8,1.3,1.1,2l0,0
	c-0.1-0.5-0.1-1-0.1-1.5c0-0.7,0-1.4,0-2.1h0.9c0,0.6,0,1.4,0,2.3S114.3,82.5,114.3,83.2L114.3,83.2z"/>
<path class="st3" d="M25.3,60.6h3v6h-3C25.3,66.6,25.3,60.6,25.3,60.6z M37.5,63.6h3v3h-3V63.6z M34.5,42.4v3h3v18.2h-3V51.5h-3v-3
	h-6.1v3h-3v15.1h-6.1v-3h3V48.5h3v-6.1h3v3h3v-9.1h9.1v6.1L34.5,42.4z"/>
<path class="st4" d="M34.4,33.3h3v3h-3V33.3z M25.3,33.3h6.1v3h-6.1V33.3z M34.4,66.6h-3V54.5h3v9.1h3v3L34.4,66.6z M28.4,54.5v6.1
	h-3V48.5h6v6L28.4,54.5z"/>
<path class="st5" d="M22.3,51.5h3v15.1h-3V51.5z M28.4,54.5h3v12.1h-3V54.5z M31.4,51.5h3v3h-3V51.5z"/>
<rect x="46.5" y="42.4" class="st6" width="3" height="3"/>
<rect x="37.5" y="42.4" class="st6" width="6.1" height="3"/>
<rect x="19.3" y="36.3" class="st6" width="3" height="12.1"/>
<polygon class="st6" points="37.5,12.1 40.5,12.1 40.5,24.2 37.5,24.2 37.5,27.2 25.3,27.2 25.3,24.2 22.3,24.2 22.3,12.1 
	28.4,12.1 28.4,9.1 37.5,9.1 "/>
<polygon class="st6" points="31.4,30.3 34.4,30.3 34.4,36.3 31.4,36.3 31.4,33.3 25.3,33.3 25.3,30.3 "/>
<rect x="25.3" y="27.2" class="st7" width="9.1" height="3"/>
<polygon class="st3" points="46.5,33.3 49.6,33.3 49.6,42.4 46.5,42.4 46.5,45.4 43.5,45.4 43.5,33.3 "/>
<rect x="34.4" y="42.4" class="st8" width="3" height="3"/>
<polygon class="st8" points="25.3,42.4 22.3,42.4 22.3,33.3 19.3,33.3 19.3,30.3 16.3,30.3 16.3,24.2 13.3,24.2 13.3,12.1 
	16.3,12.1 16.3,3 19.3,3 19.3,0 37.5,0 37.5,3 40.5,3 40.5,6 43.5,6 43.5,18.2 40.5,18.2 40.5,12.1 37.5,12.1 37.5,9.1 28.4,9.1 
	28.4,12.1 22.3,12.1 22.3,24.2 25.3,24.2 25.3,36.3 28.3,36.3 28.3,45.4 25.3,45.4 "/>
<polygon class="st8" points="40.5,24.2 43.5,24.2 43.5,33.3 40.5,33.3 40.5,39.3 37.5,39.3 37.5,24.2 "/>
<polygon class="st9" points="12.4,77.8 12.4,96.7 12.4,115.6 30.9,96.3 "/>
<polygon class="st10" points="36.5,101.8 45.2,96.7 35.8,91.2 30.9,96.3 "/>
<polygon class="st11" points="35.8,91.2 28.8,87.2 12.4,77.7 12.4,77.8 30.9,96.3 "/>
<polygon class="st12" points="28.8,106.2 36.5,101.8 30.9,96.3 12.4,115.6 12.4,115.7 "/>
</svg>
