<svg xmlns="http://www.w3.org/2000/svg" viewBox="0 0 179.93 125.47"><defs><style>.cls-1{fill:#1c191c;}.cls-2{fill:#fff;}.cls-3{fill:#ffc17a;}.cls-4{fill:#0a0b20;}.cls-10,.cls-4,.cls-6,.cls-7,.cls-9{fill-rule:evenodd;}.cls-5{fill:#f8e9e4;}.cls-6{fill:#9c9b94;}.cls-7{fill:#29374e;}.cls-8{fill:#faf9f8;}.cls-9{fill:#ffc182;}.cls-10{fill:#212121;}</style></defs><title>appstore-ios_1</title><g id="Layer_2" data-name="Layer 2"><g id="Layer_1-2" data-name="Layer 1"><polygon class="cls-1" points="179.78 125.47 0 125.47 0 66.61 179.93 66.61 179.93 117.52 179.78 125.47"/><path class="cls-2" d="M46.92,105.52a29.6,29.6,0,0,1-2.63,4.92c-1.72,2.6-4.13,5.85-7.12,5.87-2.65,0-3.33-1.72-6.94-1.7s-4.35,1.73-7,1.71c-3,0-5.27-3-7-5.56C11.45,103.47,11,94.93,13.9,90.38a10.6,10.6,0,0,1,8.52-5.12c3.17,0,5.16,1.74,7.78,1.74s4.08-1.74,7.75-1.74a10.33,10.33,0,0,1,7.79,4.11c-6.85,3.75-5.74,13.53,1.18,16.15Z"/><path class="cls-2" d="M35.17,82.35a8.88,8.88,0,0,0,2-6.59,9.64,9.64,0,0,0-6.2,3.34,8.21,8.21,0,0,0-2,6.42,8.12,8.12,0,0,0,6.25-3.17Z"/><path class="cls-2" d="M63.13,93.59c.23.9.48,1.83.8,2.84l1.84,5.35H60.52l1.82-5.38c.28-.87.54-1.82.79-2.81ZM61.5,90.27l-6.86,20.18h3.14l2-6.2h6.64l2.1,6.2H71.8L64.91,90.27Z"/><path class="cls-2" d="M79.91,98c2.72,0,3.94,2.52,3.94,5,0,3.22-1.56,5.22-4.06,5.22a3.71,3.71,0,0,1-3.6-2.83,4,4,0,0,1-.1-1V102a5.39,5.39,0,0,1,.09-.76c0-.08,0-.17,0-.25a3.86,3.86,0,0,1,3.68-3Zm.76-2.53a5.72,5.72,0,0,0-4.86,2.33l-.12-2H72.9l0,.26c.08,1.25.11,2.63.11,4.6v15.55h3.06V109a5.36,5.36,0,0,0,4.17,1.79,6.27,6.27,0,0,0,4.62-2,8.32,8.32,0,0,0,2.05-5.87,8.13,8.13,0,0,0-1.78-5.36,5.81,5.81,0,0,0-4.48-2.07Z"/><path class="cls-2" d="M95.63,98c2.72,0,3.94,2.52,3.94,5,0,3.22-1.56,5.22-4.06,5.22a3.71,3.71,0,0,1-3.6-2.83,4,4,0,0,1-.1-1V102a5.39,5.39,0,0,1,.09-.76c0-.08,0-.17,0-.25a3.86,3.86,0,0,1,3.68-3Zm.76-2.53a5.72,5.72,0,0,0-4.86,2.33l-.12-2H88.62l0,.26c.08,1.25.11,2.63.11,4.6v15.55h3.06V109A5.34,5.34,0,0,0,96,110.77a6.31,6.31,0,0,0,4.63-2,8.36,8.36,0,0,0,2-5.87,8.13,8.13,0,0,0-1.78-5.36,5.81,5.81,0,0,0-4.48-2.07Z"/><path class="cls-2" d="M116.08,98.82c-2.85-1.1-3.76-2-3.76-3.57,0-1.35,1.07-2.72,3.47-2.72a6.93,6.93,0,0,1,3.58.9l.26.16.86-2.54-.17-.1a8.82,8.82,0,0,0-4.44-1c-3.9,0-6.62,2.3-6.62,5.59,0,2.65,1.71,4.5,5.36,5.83,2.59,1,3.56,2,3.56,3.66,0,1.93-1.49,3.12-3.88,3.12a8.38,8.38,0,0,1-4.4-1.24l-.27-.17-.82,2.6.15.1a10.5,10.5,0,0,0,5.16,1.33c5.25,0,7.11-3.2,7.11-5.94s-1.49-4.57-5.15-6Z"/><path class="cls-2" d="M126.73,92.35l-3,.94v2.53h-2.19v2.44h2.19v7.48a5.72,5.72,0,0,0,1.06,3.87,3.9,3.9,0,0,0,2.95,1.16,7,7,0,0,0,2.36-.37l.17-.06-.14-2.44-.3.09a4.54,4.54,0,0,1-1.42.16c-1.18,0-1.68-.74-1.68-2.5V98.26h3.68V95.82h-3.68V92.35Z"/><path class="cls-2" d="M137.88,97.91c2.75,0,4,2.68,4,5.17,0,3.06-1.7,5.28-4,5.28h0c-2.32,0-4-2.19-4-5.19,0-2.62,1.26-5.26,4.08-5.26ZM138,95.5c-4.27,0-7.25,3.19-7.25,7.75s2.89,7.52,7,7.52h0c3.49,0,7.25-2.44,7.25-7.78a7.73,7.73,0,0,0-1.94-5.4A6.79,6.79,0,0,0,138,95.5Z"/><path class="cls-2" d="M154.37,95.64l-.18,0a2.84,2.84,0,0,0-.76-.1A4.35,4.35,0,0,0,149.6,98l-.09-2.14h-2.74l0,.26c.08,1.21.12,2.56.12,4.4l0,10h3.05v-7.78a8.68,8.68,0,0,1,.08-1.19,3.38,3.38,0,0,1,3.22-3.07,7,7,0,0,1,.82,0l.32,0V95.64Z"/><path class="cls-2" d="M161,97.8a3,3,0,0,1,2.24.85,4.27,4.27,0,0,1,1,2.84h-7c.29-1.76,1.39-3.69,3.67-3.69Zm.21-2.33c-4.07,0-6.91,3.25-6.91,7.9,0,4.48,2.83,7.37,7.2,7.37a11.54,11.54,0,0,0,4.83-.93l.19-.08-.59-2.27-.26.1a9.4,9.4,0,0,1-3.82.68,4.24,4.24,0,0,1-4.57-4.42l9.85,0,0-.2a7,7,0,0,0,.09-1.27c0-3.19-1.58-6.91-6-6.91Z"/><path class="cls-2" d="M56,85a11.25,11.25,0,0,0,1.39,0c2.92,0,4.51-1.47,4.51-4,0-2.28-1.4-3.68-4.29-3.68a8.85,8.85,0,0,0-1.61.12V85Zm-1.39-8.46a21.19,21.19,0,0,1,2.93-.2,6.53,6.53,0,0,1,4.3,1.18,4.15,4.15,0,0,1,1.51,3.44,4.84,4.84,0,0,1-1.52,3.71A7.11,7.11,0,0,1,57.15,86a20.47,20.47,0,0,1-2.51-.11V76.49Z"/><path class="cls-2" d="M68.34,85.13a2.44,2.44,0,0,0,2.31-2.68,2.33,2.33,0,1,0-2.33,2.68Zm0,.94a3.44,3.44,0,0,1-3.65-3.53,3.53,3.53,0,0,1,3.78-3.64,3.41,3.41,0,0,1,3.67,3.51,3.56,3.56,0,0,1-3.78,3.66Z"/><path class="cls-2" d="M74.28,79.05l1,3.47c.21.77.41,1.49.55,2.2h.05c.17-.69.42-1.43.68-2.18l1.24-3.49H79l1.18,3.43c.28.81.5,1.55.67,2.24h0a19.85,19.85,0,0,1,.58-2.22l1.09-3.45h1.37l-2.46,6.86H80.21l-1.16-3.27a22,22,0,0,1-.68-2.27h0a21,21,0,0,1-.69,2.28l-1.23,3.26H75.16l-2.3-6.86Z"/><path class="cls-2" d="M85.31,80.91c0-.72,0-1.29-.06-1.86h1.23l.08,1.12h0a2.88,2.88,0,0,1,2.52-1.27,2.61,2.61,0,0,1,2.69,2.92v4.09H90.42V82c0-1.11-.46-2-1.77-2a2,2,0,0,0-1.86,1.27,1.76,1.76,0,0,0-.09.58v4.14H85.31v-5Z"/><polygon class="cls-2" points="94.05 75.85 95.44 75.85 95.44 85.91 94.05 85.91 94.05 75.85 94.05 75.85"/><path class="cls-2" d="M100.88,85.13a2.44,2.44,0,0,0,2.32-2.68,2.33,2.33,0,1,0-2.33,2.68Zm0,.94a3.44,3.44,0,0,1-3.65-3.53A3.53,3.53,0,0,1,101,78.9a3.41,3.41,0,0,1,3.67,3.51,3.56,3.56,0,0,1-3.78,3.66Z"/><path class="cls-2" d="M110.4,82.41c-1.52,0-3.23.21-3.23,1.54a1.15,1.15,0,0,0,1.29,1.19A1.91,1.91,0,0,0,110.33,84a1.12,1.12,0,0,0,.07-.4V82.41Zm1.35,1.86a10.24,10.24,0,0,0,.11,1.64h-1.25l-.12-.86h0a3,3,0,0,1-2.33,1,2.08,2.08,0,0,1-2.33-2c0-1.66,1.64-2.57,4.58-2.55V81.4c0-.56-.17-1.6-1.73-1.58a4,4,0,0,0-2,.51l-.31-.84a5.42,5.42,0,0,1,2.52-.59c2.34,0,2.91,1.43,2.91,2.8v2.57Z"/><path class="cls-2" d="M119.16,81.84a2,2,0,0,0-.06-.54,2,2,0,0,0-2-1.43,2.35,2.35,0,0,0-2.28,2.64,2.27,2.27,0,0,0,2.25,2.55,2.06,2.06,0,0,0,2-1.49,1.86,1.86,0,0,0,.06-.54V81.84Zm1.39-6v8.29c0,.61,0,1.3.06,1.77h-1.24l-.06-1.19h0a2.85,2.85,0,0,1-2.58,1.35,3.27,3.27,0,0,1-3.27-3.49,3.41,3.41,0,0,1,3.41-3.68,2.6,2.6,0,0,1,2.3,1h0V75.85Z"/><path class="cls-2" d="M129.33,85.13a2.44,2.44,0,0,0,2.32-2.68,2.33,2.33,0,1,0-2.33,2.68Zm0,.94a3.45,3.45,0,0,1-3.66-3.53,3.54,3.54,0,0,1,3.78-3.64,3.41,3.41,0,0,1,3.67,3.51,3.56,3.56,0,0,1-3.78,3.66Z"/><path class="cls-2" d="M134.83,80.91c0-.72,0-1.29-.06-1.86H136l.08,1.12h0a2.85,2.85,0,0,1,2.51-1.27,2.61,2.61,0,0,1,2.7,2.92v4.09h-1.39V82c0-1.11-.46-2-1.76-2a2,2,0,0,0-1.86,1.27,1.76,1.76,0,0,0-.09.58v4.14h-1.39v-5Z"/><path class="cls-2" d="M148.57,77.41v1.64h2v1h-2v3.7c0,.85.27,1.33,1,1.33a3.26,3.26,0,0,0,.81-.08l.06,1a4.34,4.34,0,0,1-1.23.17,2.07,2.07,0,0,1-1.49-.53,2.47,2.47,0,0,1-.54-1.8V80H146v-1h1.18V77.79l1.35-.38Z"/><path class="cls-2" d="M152.12,75.85h1.38v4.28h0a2.33,2.33,0,0,1,1-.88,2.86,2.86,0,0,1,1.41-.35,2.6,2.6,0,0,1,2.66,2.93v4.08h-1.38V82c0-1.12-.46-2-1.77-2a2,2,0,0,0-1.85,1.25,1.33,1.33,0,0,0-.1.59v4.14h-1.38V75.85Z"/><path class="cls-2" d="M165.69,81.8a1.84,1.84,0,0,0-1.91-2,2.16,2.16,0,0,0-2.12,2Zm-4.05.89a2.32,2.32,0,0,0,2.6,2.38,5.64,5.64,0,0,0,2.11-.34l.25.88a6.78,6.78,0,0,1-2.55.44c-2.33,0-3.75-1.4-3.75-3.46a3.49,3.49,0,0,1,3.59-3.71A3,3,0,0,1,167,82.11a3,3,0,0,1-.05.6l-5.34,0Z"/><rect class="cls-3" x="132.8" y="9.08" width="21.2" height="21.2"/><polygon class="cls-4" points="129.77 33.31 157.02 33.31 157.02 54.5 153.99 54.5 153.99 66.61 129.77 66.61 129.77 63.59 132.8 63.59 132.8 51.47 129.77 51.47 129.77 48.45 126.74 48.45 126.74 45.42 123.71 45.42 123.71 42.39 126.74 42.39 126.74 39.36 129.77 39.36 129.77 33.31"/><rect class="cls-5" x="150.97" y="45.42" width="3.03" height="6.06"/><path class="cls-6" d="M147.94,39.36v3h3v-3h3v-3h3v-6h-3v3h-6.05Zm-18.17,0h6.06v3h6V33.31h-6v-3h-3v3h-3Z"/><path class="cls-7" d="M141.88,39.36h6.06v-6h-6.06Zm-6,18.17h6v-3h-6Zm12.11-15.14h3v-3h-3Zm-9.09,0h3v-3h-3Zm9.09,9.08v-3h-3v-3h-6.06v6h9.09Z"/><rect class="cls-3" x="132.8" y="9.08" width="21.2" height="21.2"/><rect class="cls-8" x="120.69" y="27.25" width="6.06" height="12.11"/><polygon class="cls-9" points="120.69 39.36 120.69 36.34 123.71 36.34 123.71 39.36 126.74 39.36 126.74 42.39 120.69 42.39 120.69 39.36"/><path class="cls-10" d="M138.85,27.25h-3v-3h3Zm6.06,0h-3v-3h3Zm-9.08,0v3h9.08v-3h3v3H154v3H132.8v-3h-3V18.17h-3V12.11h3v-3h3v-3h3V3h3V0h9.09V3H157v3h3v3h3v9.09h-3v9.08h-3v3h-3V15.14h-6.05v-3h-6.06v-3h-3v3h-3v3h-3V27.25Z"/></g></g></svg>