<!-- Generator: Adobe Illustrator 23.0.1, SVG Export Plug-In  -->
<svg version="1.1" xmlns="http://www.w3.org/2000/svg" xmlns:xlink="http://www.w3.org/1999/xlink" x="0px" y="0px" width="120px"
	 height="108px" viewBox="0 0 120 108" style="enable-background:new 0 0 120 108;" xml:space="preserve">
<style type="text/css">
	.st0{fill:#FFFFFF;}
</style>
<defs>
</defs>
<title>Throne Fantasy</title>
<desc>Created with Sketch.</desc>
<g>
	<rect x="108" y="99" class="st0" width="3" height="3"/>
	<rect x="90" y="99" class="st0" width="3" height="3"/>
	<polygon class="st0" points="102,102 96,102 93,102 93,105 96,105 96,108 102,108 102,105 105,105 108,105 108,102 105,102 	"/>
	<polygon class="st0" points="117,54 117,57 114,57 111,57 111,60 114,60 114,63 114,69 114,75 114,81 111,81 111,75 111,69 111,63 
		108,63 108,60 105,60 102,60 102,63 105,63 105,69 105,75 105,81 108,81 108,87 114,87 114,93 111,93 111,99 117,99 117,93 120,93 
		120,87 120,81 120,75 120,69 120,63 120,57 120,54 	"/>
	<polygon class="st0" points="84,81 84,75 84,69 84,63 81,63 81,60 78,60 75,60 75,63 78,63 78,69 78,75 78,81 78,84 75,84 75,78 
		75,72 75,66 75,63 72,63 72,66 69,66 69,63 66,63 66,57 60,57 60,63 60,66 57,66 57,69 60,69 60,75 60,81 60,87 60,90 57,90 57,84 
		57,78 57,72 57,69 54,69 54,66 51,66 48,66 48,69 51,69 51,72 51,78 51,84 51,90 54,90 54,96 60,96 60,93 63,93 63,96 69,96 69,90 
		66,90 66,87 66,81 66,75 66,69 69,69 69,72 69,78 69,84 72,84 72,90 78,90 78,87 81,87 81,93 87,93 87,87 84,87 	"/>
	<polygon class="st0" points="45,66 42,66 42,69 42,75 42,81 42,87 42,93 45,93 45,99 51,99 51,93 48,93 48,87 48,81 48,75 48,69 
		45,69 	"/>
	<rect x="30" y="54" class="st0" width="6" height="3"/>
	<polygon class="st0" points="39,87 39,81 39,75 39,69 36,69 36,66 33,66 30,66 30,69 33,69 33,75 33,81 33,87 33,90 30,90 30,84 
		30,78 30,72 30,69 27,69 27,72 24,72 21,72 18,72 18,69 18,63 18,60 24,60 30,60 30,57 24,57 18,57 12,57 12,54 6,54 6,51 0,51 
		0,57 6,57 6,60 12,60 15,60 15,63 12,63 12,69 12,72 6,72 6,75 3,75 3,78 6,78 12,78 12,81 12,87 15,87 15,90 15,93 18,93 18,99 
		12,99 12,96 6,96 6,99 3,99 3,102 6,102 12,102 12,105 18,105 18,102 21,102 21,99 24,99 24,93 21,93 21,90 21,87 18,87 18,81 
		18,78 21,78 21,75 24,75 24,78 24,84 24,90 27,90 27,96 33,96 33,93 36,93 36,99 42,99 42,93 39,93 	"/>
	<polygon class="st0" points="99,60 90,60 90,63 87,63 87,72 90,72 90,75 96,75 96,84 93,84 93,78 87,78 87,87 90,87 90,90 96,90 
		99,90 99,87 102,87 102,75 99,75 99,72 93,72 93,63 96,63 96,69 102,69 102,63 99,63 	"/>
	<polygon class="st0" points="81,51 87,51 87,45 84,45 84,21 81,21 81,18 78,18 78,21 78,45 81,45 	"/>
	<polygon class="st0" points="51,45 57,45 57,39 54,39 54,21 51,21 51,18 48,18 48,21 48,39 51,39 	"/>
	<polygon class="st0" points="60,21 60,18 54,18 54,21 57,21 	"/>
	<polygon class="st0" points="60,42 63,42 63,48 69,48 72,48 72,42 75,42 75,21 72,21 72,18 66,18 66,21 69,21 69,42 66,42 66,21 
		63,21 63,24 60,24 	"/>
	<path class="st0" d="M99,42h6h3v-3h3v-6h3v-3h-9v9h-3V27h9v-9h-3v-3h-6h-3v3h-3v21h3V42z M102,18h3v6h-3V18z"/>
	<polygon class="st0" points="87,42 90,42 90,48 96,48 96,42 93,42 93,21 90,21 90,18 84,18 84,21 87,21 	"/>
	<polygon class="st0" points="12,9 21,9 21,12 18,12 18,45 15,45 15,48 15,51 21,51 21,48 24,48 24,45 27,45 27,39 24,39 24,9 30,9 
		30,45 33,45 33,51 39,51 39,45 36,45 36,21 39,21 39,42 42,42 42,48 48,48 48,42 45,42 45,21 42,21 42,18 36,18 36,6 39,6 39,3 
		36,3 33,3 30,3 30,6 18,6 18,3 12,3 12,0 6,0 6,6 12,6 	"/>
</g>
</svg>