<!-- Generator: Adobe Illustrator 23.0.1, SVG Export Plug-In  -->
<svg version="1.1" xmlns="http://www.w3.org/2000/svg" xmlns:xlink="http://www.w3.org/1999/xlink" x="0px" y="0px" width="389.8px"
	 height="350.8px" viewBox="0 0 389.8 350.8" style="enable-background:new 0 0 389.8 350.8;" xml:space="preserve">
<style type="text/css">
	.lt0{fill-rule:evenodd;clip-rule:evenodd;fill:url(#SVGID_1_);}
	.lt1{fill-rule:evenodd;clip-rule:evenodd;fill:url(#SVGID_2_);}
	.lt2{fill-rule:evenodd;clip-rule:evenodd;fill:url(#SVGID_3_);}
	.lt3{fill-rule:evenodd;clip-rule:evenodd;fill:url(#SVGID_4_);}
	.lt4{fill-rule:evenodd;clip-rule:evenodd;fill:url(#SVGID_5_);}
	.lt5{fill-rule:evenodd;clip-rule:evenodd;fill:url(#SVGID_6_);}
	.lt6{fill-rule:evenodd;clip-rule:evenodd;fill:url(#SVGID_7_);}
	.lt7{fill-rule:evenodd;clip-rule:evenodd;fill:url(#SVGID_8_);}
	.lt8{fill-rule:evenodd;clip-rule:evenodd;fill:url(#SVGID_9_);}
	.lt9{fill-rule:evenodd;clip-rule:evenodd;fill:url(#SVGID_10_);}
	.lt10{fill-rule:evenodd;clip-rule:evenodd;fill:url(#SVGID_11_);}
	.lt11{fill-rule:evenodd;clip-rule:evenodd;fill:url(#SVGID_12_);}
	.lt12{fill-rule:evenodd;clip-rule:evenodd;fill:url(#SVGID_13_);}
	.lt13{fill-rule:evenodd;clip-rule:evenodd;fill:url(#SVGID_14_);}
	.lt14{fill-rule:evenodd;clip-rule:evenodd;fill:url(#SVGID_15_);}
	.lt15{fill-rule:evenodd;clip-rule:evenodd;fill:url(#SVGID_16_);}
	.lt16{fill-rule:evenodd;clip-rule:evenodd;fill:url(#SVGID_17_);}
	.lt17{fill-rule:evenodd;clip-rule:evenodd;fill:url(#SVGID_18_);}
	.lt18{fill-rule:evenodd;clip-rule:evenodd;fill:url(#SVGID_19_);}
	.lt19{fill-rule:evenodd;clip-rule:evenodd;fill:url(#SVGID_20_);}
	.lt20{fill-rule:evenodd;clip-rule:evenodd;fill:url(#SVGID_21_);}
	.lt21{fill-rule:evenodd;clip-rule:evenodd;fill:url(#SVGID_22_);}
	.lt22{fill-rule:evenodd;clip-rule:evenodd;fill:url(#SVGID_23_);}
	.lt23{fill-rule:evenodd;clip-rule:evenodd;fill:url(#SVGID_24_);}
	.lt24{fill-rule:evenodd;clip-rule:evenodd;fill:url(#SVGID_25_);}
	.lt25{fill-rule:evenodd;clip-rule:evenodd;fill:url(#SVGID_26_);}
	.lt26{fill-rule:evenodd;clip-rule:evenodd;fill:url(#SVGID_27_);}
	.lt27{fill-rule:evenodd;clip-rule:evenodd;fill:url(#SVGID_28_);}
	.lt28{fill-rule:evenodd;clip-rule:evenodd;fill:url(#SVGID_29_);}
	.lt29{fill-rule:evenodd;clip-rule:evenodd;fill:url(#SVGID_30_);}
	.lt30{fill-rule:evenodd;clip-rule:evenodd;fill:url(#SVGID_31_);}
	.lt31{fill-rule:evenodd;clip-rule:evenodd;fill:url(#SVGID_32_);}
	.lt32{fill-rule:evenodd;clip-rule:evenodd;fill:url(#SVGID_33_);}
	.lt33{fill-rule:evenodd;clip-rule:evenodd;fill:url(#SVGID_34_);}
	.lt34{fill-rule:evenodd;clip-rule:evenodd;fill:url(#SVGID_35_);}
	.lt35{fill-rule:evenodd;clip-rule:evenodd;fill:url(#SVGID_36_);}
	.lt36{fill-rule:evenodd;clip-rule:evenodd;fill:url(#SVGID_37_);}
	.lt37{fill-rule:evenodd;clip-rule:evenodd;fill:url(#SVGID_38_);}
	.lt38{fill-rule:evenodd;clip-rule:evenodd;fill:url(#SVGID_39_);}
	.lt39{fill-rule:evenodd;clip-rule:evenodd;fill:url(#SVGID_40_);}
	.lt40{fill-rule:evenodd;clip-rule:evenodd;fill:url(#SVGID_41_);}
	.lt41{fill-rule:evenodd;clip-rule:evenodd;fill:url(#SVGID_42_);}
	.lt42{fill-rule:evenodd;clip-rule:evenodd;fill:url(#SVGID_43_);}
	.lt43{fill-rule:evenodd;clip-rule:evenodd;fill:url(#SVGID_44_);}
	.lt44{fill-rule:evenodd;clip-rule:evenodd;fill:url(#SVGID_45_);}
	.lt45{fill-rule:evenodd;clip-rule:evenodd;fill:url(#SVGID_46_);}
	.lt46{fill-rule:evenodd;clip-rule:evenodd;fill:url(#SVGID_47_);}
	.lt47{fill-rule:evenodd;clip-rule:evenodd;fill:url(#SVGID_48_);}
	.lt48{fill-rule:evenodd;clip-rule:evenodd;fill:url(#SVGID_49_);}
	.lt49{fill-rule:evenodd;clip-rule:evenodd;fill:url(#SVGID_50_);}
	.lt50{fill-rule:evenodd;clip-rule:evenodd;fill:url(#SVGID_51_);}
	.lt51{fill-rule:evenodd;clip-rule:evenodd;fill:url(#SVGID_52_);}
	.lt52{fill-rule:evenodd;clip-rule:evenodd;fill:url(#SVGID_53_);}
	.lt53{fill-rule:evenodd;clip-rule:evenodd;fill:url(#SVGID_54_);}
	.lt54{fill-rule:evenodd;clip-rule:evenodd;fill:url(#SVGID_55_);}
	.lt55{fill-rule:evenodd;clip-rule:evenodd;fill:url(#SVGID_56_);}
	.lt56{fill-rule:evenodd;clip-rule:evenodd;fill:url(#SVGID_57_);}
	.lt57{fill-rule:evenodd;clip-rule:evenodd;fill:url(#SVGID_58_);}
	.lt58{fill-rule:evenodd;clip-rule:evenodd;fill:url(#SVGID_59_);}
	.lt59{fill-rule:evenodd;clip-rule:evenodd;fill:url(#SVGID_60_);}
	.lt60{fill-rule:evenodd;clip-rule:evenodd;fill:url(#SVGID_61_);}
	.lt61{fill-rule:evenodd;clip-rule:evenodd;fill:url(#SVGID_62_);}
</style>
<defs>
</defs>
<g>
	<linearGradient id="SVGID_1_" gradientUnits="userSpaceOnUse" x1="107.4058" y1="186.3146" x2="111.9671" y2="316.3127">
		<stop  offset="0" style="stop-color:#EC4C7C"/>
		<stop  offset="1" style="stop-color:#EF8540"/>
	</linearGradient>
	<rect x="97.4" y="175.4" class="lt0" width="19.5" height="9.7"/>
	<linearGradient id="SVGID_2_" gradientUnits="userSpaceOnUse" x1="292.0755" y1="179.835" x2="296.6368" y2="309.8331">
		<stop  offset="0" style="stop-color:#EC4C7C"/>
		<stop  offset="1" style="stop-color:#EF8540"/>
	</linearGradient>
	<rect x="292.3" y="321.6" class="lt1" width="9.7" height="9.7"/>
	<linearGradient id="SVGID_3_" gradientUnits="userSpaceOnUse" x1="350.4731" y1="177.7859" x2="355.0345" y2="307.784">
		<stop  offset="0" style="stop-color:#EC4C7C"/>
		<stop  offset="1" style="stop-color:#EF8540"/>
	</linearGradient>
	<rect x="350.8" y="321.6" class="lt2" width="9.7" height="9.7"/>
	<linearGradient id="SVGID_4_" gradientUnits="userSpaceOnUse" x1="304.7112" y1="179.3916" x2="309.2726" y2="309.3897">
		<stop  offset="0" style="stop-color:#EC4C7C"/>
		<stop  offset="1" style="stop-color:#EF8540"/>
	</linearGradient>
	<polygon class="lt3" points="321.6,194.9 292.3,194.9 292.3,204.6 282.6,204.6 282.6,233.9 292.3,233.9 292.3,243.6 311.8,243.6 
		311.8,272.9 302.1,272.9 302.1,253.4 282.6,253.4 282.6,282.6 292.3,282.6 292.3,292.3 311.8,292.3 321.6,292.3 321.6,282.6 
		331.3,282.6 331.3,243.6 321.6,243.6 321.6,233.9 302.1,233.9 302.1,204.6 311.8,204.6 311.8,224.1 331.3,224.1 331.3,204.6 
		321.6,204.6 	"/>
	<linearGradient id="SVGID_5_" gradientUnits="userSpaceOnUse" x1="66.2543" y1="187.7585" x2="70.8156" y2="317.7566">
		<stop  offset="0" style="stop-color:#EC4C7C"/>
		<stop  offset="1" style="stop-color:#EF8540"/>
	</linearGradient>
	<polygon class="lt4" points="126.7,282.6 126.7,263.1 126.7,243.6 126.7,224.1 116.9,224.1 116.9,214.4 107.2,214.4 97.4,214.4 
		97.4,224.1 107.2,224.1 107.2,243.6 107.2,263.1 107.2,282.6 107.2,292.3 97.4,292.3 97.4,272.9 97.4,253.4 97.4,233.9 97.4,224.1 
		87.7,224.1 87.7,233.9 78,233.9 68.2,233.9 58.5,233.9 58.5,224.1 58.5,204.6 58.5,194.9 78,194.9 97.4,194.9 97.4,185.2 78,185.2 
		58.5,185.2 39,185.2 39,175.4 19.5,175.4 19.5,165.7 0,165.7 0,185.2 19.5,185.2 19.5,194.9 39,194.9 48.7,194.9 48.7,204.6 
		39,204.6 39,224.1 39,233.9 19.5,233.9 19.5,243.6 9.7,243.6 9.7,253.4 19.5,253.4 39,253.4 39,263.1 39,282.6 48.7,282.6 
		48.7,292.3 48.7,302.1 58.5,302.1 58.5,321.6 39,321.6 39,311.8 19.5,311.8 19.5,321.6 9.7,321.6 9.7,331.3 19.5,331.3 39,331.3 
		39,341.1 58.5,341.1 58.5,331.3 68.2,331.3 68.2,321.6 78,321.6 78,302.1 68.2,302.1 68.2,292.3 68.2,282.6 58.5,282.6 58.5,263.1 
		58.5,253.4 68.2,253.4 68.2,243.6 78,243.6 78,253.4 78,272.9 78,292.3 87.7,292.3 87.7,311.8 107.2,311.8 107.2,302.1 
		116.9,302.1 116.9,321.6 136.4,321.6 136.4,302.1 126.7,302.1 	"/>
	<linearGradient id="SVGID_6_" gradientUnits="userSpaceOnUse" x1="360.1207" y1="177.4474" x2="364.682" y2="307.4455">
		<stop  offset="0" style="stop-color:#EC4C7C"/>
		<stop  offset="1" style="stop-color:#EF8540"/>
	</linearGradient>
	<polygon class="lt5" points="380.1,175.4 380.1,185.2 370.3,185.2 360.6,185.2 360.6,194.9 370.3,194.9 370.3,204.6 370.3,224.1 
		370.3,243.6 370.3,263.1 360.6,263.1 360.6,243.6 360.6,224.1 360.6,204.6 350.8,204.6 350.8,194.9 341.1,194.9 331.3,194.9 
		331.3,204.6 341.1,204.6 341.1,224.1 341.1,243.6 341.1,263.1 350.8,263.1 350.8,282.6 370.3,282.6 370.3,302.1 360.6,302.1 
		360.6,321.6 380.1,321.6 380.1,302.1 389.8,302.1 389.8,282.6 389.8,263.1 389.8,243.6 389.8,224.1 389.8,204.6 389.8,185.2 
		389.8,175.4 	"/>
	<linearGradient id="SVGID_7_" gradientUnits="userSpaceOnUse" x1="216.7733" y1="182.4771" x2="221.3346" y2="312.4753">
		<stop  offset="0" style="stop-color:#EC4C7C"/>
		<stop  offset="1" style="stop-color:#EF8540"/>
	</linearGradient>
	<polygon class="lt6" points="272.9,263.1 272.9,243.6 272.9,224.1 272.9,204.6 263.1,204.6 263.1,194.9 253.4,194.9 243.6,194.9 
		243.6,204.6 253.4,204.6 253.4,224.1 253.4,243.6 253.4,263.1 253.4,272.9 243.6,272.9 243.6,253.4 243.6,233.9 243.6,214.4 
		243.6,204.6 233.9,204.6 233.9,214.4 224.1,214.4 224.1,204.6 214.4,204.6 214.4,185.2 194.9,185.2 194.9,204.6 194.9,214.4 
		185.2,214.4 185.2,224.1 194.9,224.1 194.9,243.6 194.9,263.1 194.9,282.6 194.9,292.3 185.2,292.3 185.2,272.9 185.2,253.4 
		185.2,233.9 185.2,224.1 175.4,224.1 175.4,214.4 165.7,214.4 155.9,214.4 155.9,224.1 165.7,224.1 165.7,233.9 165.7,253.4 
		165.7,272.9 165.7,292.3 175.4,292.3 175.4,311.8 194.9,311.8 194.9,302.1 204.6,302.1 204.6,311.8 224.1,311.8 224.1,292.3 
		214.4,292.3 214.4,282.6 214.4,263.1 214.4,243.6 214.4,224.1 224.1,224.1 224.1,233.9 224.1,253.4 224.1,272.9 233.9,272.9 
		233.9,292.3 253.4,292.3 253.4,282.6 263.1,282.6 263.1,302.1 282.6,302.1 282.6,282.6 272.9,282.6 	"/>
	<linearGradient id="SVGID_8_" gradientUnits="userSpaceOnUse" x1="146.9352" y1="184.9276" x2="151.4965" y2="314.9257">
		<stop  offset="0" style="stop-color:#EC4C7C"/>
		<stop  offset="1" style="stop-color:#EF8540"/>
	</linearGradient>
	<polygon class="lt7" points="146.2,214.4 136.4,214.4 136.4,224.1 136.4,243.6 136.4,263.1 136.4,282.6 136.4,302.1 146.2,302.1 
		146.2,321.6 165.7,321.6 165.7,302.1 155.9,302.1 155.9,282.6 155.9,263.1 155.9,243.6 155.9,224.1 146.2,224.1 	"/>
	<linearGradient id="SVGID_9_" gradientUnits="userSpaceOnUse" x1="107.4058" y1="186.3146" x2="111.9671" y2="316.3127">
		<stop  offset="0" style="stop-color:#EC4C7C"/>
		<stop  offset="1" style="stop-color:#EF8540"/>
	</linearGradient>
	<rect x="97.4" y="175.4" class="lt8" width="19.5" height="9.7"/>
	<linearGradient id="SVGID_10_" gradientUnits="userSpaceOnUse" x1="292.0755" y1="179.835" x2="296.6368" y2="309.8331">
		<stop  offset="0" style="stop-color:#EC4C7C"/>
		<stop  offset="1" style="stop-color:#EF8540"/>
	</linearGradient>
	<rect x="292.3" y="321.6" class="lt9" width="9.7" height="9.7"/>
	<linearGradient id="SVGID_11_" gradientUnits="userSpaceOnUse" x1="320.9328" y1="178.8224" x2="325.4941" y2="308.8205">
		<stop  offset="0" style="stop-color:#EC4C7C"/>
		<stop  offset="1" style="stop-color:#EF8540"/>
	</linearGradient>
	<polygon class="lt10" points="331.3,331.3 311.8,331.3 302.1,331.3 302.1,341.1 311.8,341.1 311.8,350.8 331.3,350.8 331.3,341.1 
		341.1,341.1 350.8,341.1 350.8,331.3 341.1,331.3 	"/>
	<linearGradient id="SVGID_12_" gradientUnits="userSpaceOnUse" x1="350.4731" y1="177.7859" x2="355.0345" y2="307.784">
		<stop  offset="0" style="stop-color:#EC4C7C"/>
		<stop  offset="1" style="stop-color:#EF8540"/>
	</linearGradient>
	<rect x="350.8" y="321.6" class="lt11" width="9.7" height="9.7"/>
	<linearGradient id="SVGID_13_" gradientUnits="userSpaceOnUse" x1="304.7112" y1="179.3916" x2="309.2726" y2="309.3897">
		<stop  offset="0" style="stop-color:#EC4C7C"/>
		<stop  offset="1" style="stop-color:#EF8540"/>
	</linearGradient>
	<polygon class="lt12" points="321.6,194.9 292.3,194.9 292.3,204.6 282.6,204.6 282.6,233.9 292.3,233.9 292.3,243.6 311.8,243.6 
		311.8,272.9 302.1,272.9 302.1,253.4 282.6,253.4 282.6,282.6 292.3,282.6 292.3,292.3 311.8,292.3 321.6,292.3 321.6,282.6 
		331.3,282.6 331.3,243.6 321.6,243.6 321.6,233.9 302.1,233.9 302.1,204.6 311.8,204.6 311.8,224.1 331.3,224.1 331.3,204.6 
		321.6,204.6 	"/>
	<linearGradient id="SVGID_14_" gradientUnits="userSpaceOnUse" x1="66.2543" y1="187.7585" x2="70.8156" y2="317.7566">
		<stop  offset="0" style="stop-color:#EC4C7C"/>
		<stop  offset="1" style="stop-color:#EF8540"/>
	</linearGradient>
	<polygon class="lt13" points="126.7,282.6 126.7,263.1 126.7,243.6 126.7,224.1 116.9,224.1 116.9,214.4 107.2,214.4 97.4,214.4 
		97.4,224.1 107.2,224.1 107.2,243.6 107.2,263.1 107.2,282.6 107.2,292.3 97.4,292.3 97.4,272.9 97.4,253.4 97.4,233.9 97.4,224.1 
		87.7,224.1 87.7,233.9 78,233.9 68.2,233.9 58.5,233.9 58.5,224.1 58.5,204.6 58.5,194.9 78,194.9 97.4,194.9 97.4,185.2 78,185.2 
		58.5,185.2 39,185.2 39,175.4 19.5,175.4 19.5,165.7 0,165.7 0,185.2 19.5,185.2 19.5,194.9 39,194.9 48.7,194.9 48.7,204.6 
		39,204.6 39,224.1 39,233.9 19.5,233.9 19.5,243.6 9.7,243.6 9.7,253.4 19.5,253.4 39,253.4 39,263.1 39,282.6 48.7,282.6 
		48.7,292.3 48.7,302.1 58.5,302.1 58.5,321.6 39,321.6 39,311.8 19.5,311.8 19.5,321.6 9.7,321.6 9.7,331.3 19.5,331.3 39,331.3 
		39,341.1 58.5,341.1 58.5,331.3 68.2,331.3 68.2,321.6 78,321.6 78,302.1 68.2,302.1 68.2,292.3 68.2,282.6 58.5,282.6 58.5,263.1 
		58.5,253.4 68.2,253.4 68.2,243.6 78,243.6 78,253.4 78,272.9 78,292.3 87.7,292.3 87.7,311.8 107.2,311.8 107.2,302.1 
		116.9,302.1 116.9,321.6 136.4,321.6 136.4,302.1 126.7,302.1 	"/>
	<linearGradient id="SVGID_15_" gradientUnits="userSpaceOnUse" x1="360.1207" y1="177.4474" x2="364.682" y2="307.4455">
		<stop  offset="0" style="stop-color:#EC4C7C"/>
		<stop  offset="1" style="stop-color:#EF8540"/>
	</linearGradient>
	<polygon class="lt14" points="380.1,175.4 380.1,185.2 370.3,185.2 360.6,185.2 360.6,194.9 370.3,194.9 370.3,204.6 370.3,224.1 
		370.3,243.6 370.3,263.1 360.6,263.1 360.6,243.6 360.6,224.1 360.6,204.6 350.8,204.6 350.8,194.9 341.1,194.9 331.3,194.9 
		331.3,204.6 341.1,204.6 341.1,224.1 341.1,243.6 341.1,263.1 350.8,263.1 350.8,282.6 370.3,282.6 370.3,302.1 360.6,302.1 
		360.6,321.6 380.1,321.6 380.1,302.1 389.8,302.1 389.8,282.6 389.8,263.1 389.8,243.6 389.8,224.1 389.8,204.6 389.8,185.2 
		389.8,175.4 	"/>
	<linearGradient id="SVGID_16_" gradientUnits="userSpaceOnUse" x1="216.7733" y1="182.4771" x2="221.3346" y2="312.4753">
		<stop  offset="0" style="stop-color:#EC4C7C"/>
		<stop  offset="1" style="stop-color:#EF8540"/>
	</linearGradient>
	<polygon class="lt15" points="272.9,263.1 272.9,243.6 272.9,224.1 272.9,204.6 263.1,204.6 263.1,194.9 253.4,194.9 243.6,194.9 
		243.6,204.6 253.4,204.6 253.4,224.1 253.4,243.6 253.4,263.1 253.4,272.9 243.6,272.9 243.6,253.4 243.6,233.9 243.6,214.4 
		243.6,204.6 233.9,204.6 233.9,214.4 224.1,214.4 224.1,204.6 214.4,204.6 214.4,185.2 194.9,185.2 194.9,204.6 194.9,214.4 
		185.2,214.4 185.2,224.1 194.9,224.1 194.9,243.6 194.9,263.1 194.9,282.6 194.9,292.3 185.2,292.3 185.2,272.9 185.2,253.4 
		185.2,233.9 185.2,224.1 175.4,224.1 175.4,214.4 165.7,214.4 155.9,214.4 155.9,224.1 165.7,224.1 165.7,233.9 165.7,253.4 
		165.7,272.9 165.7,292.3 175.4,292.3 175.4,311.8 194.9,311.8 194.9,302.1 204.6,302.1 204.6,311.8 224.1,311.8 224.1,292.3 
		214.4,292.3 214.4,282.6 214.4,263.1 214.4,243.6 214.4,224.1 224.1,224.1 224.1,233.9 224.1,253.4 224.1,272.9 233.9,272.9 
		233.9,292.3 253.4,292.3 253.4,282.6 263.1,282.6 263.1,302.1 282.6,302.1 282.6,282.6 272.9,282.6 	"/>
	<linearGradient id="SVGID_17_" gradientUnits="userSpaceOnUse" x1="146.9352" y1="184.9276" x2="151.4965" y2="314.9257">
		<stop  offset="0" style="stop-color:#EC4C7C"/>
		<stop  offset="1" style="stop-color:#EF8540"/>
	</linearGradient>
	<polygon class="lt16" points="146.2,214.4 136.4,214.4 136.4,224.1 136.4,243.6 136.4,263.1 136.4,282.6 136.4,302.1 146.2,302.1 
		146.2,321.6 165.7,321.6 165.7,302.1 155.9,302.1 155.9,282.6 155.9,263.1 155.9,243.6 155.9,224.1 146.2,224.1 	"/>
</g>
<g>
	<linearGradient id="SVGID_18_" gradientUnits="userSpaceOnUse" x1="180.5427" y1="-12.9918" x2="190.8057" y2="156.918">
		<stop  offset="0" style="stop-color:#EC4C7C"/>
		<stop  offset="1" style="stop-color:#EF8540"/>
	</linearGradient>
	<polygon class="lt17" points="194.9,68.2 194.9,58.5 175.4,58.5 175.4,68.2 185.2,68.2 	"/>
	<linearGradient id="SVGID_19_" gradientUnits="userSpaceOnUse" x1="162.1664" y1="-11.8818" x2="172.4294" y2="158.028">
		<stop  offset="0" style="stop-color:#EC4C7C"/>
		<stop  offset="1" style="stop-color:#EF8540"/>
	</linearGradient>
	<polygon class="lt18" points="165.7,146.2 185.2,146.2 185.2,126.7 175.4,126.7 175.4,68.2 165.7,68.2 165.7,58.5 155.9,58.5 
		155.9,68.2 155.9,126.7 165.7,126.7 	"/>
	<linearGradient id="SVGID_20_" gradientUnits="userSpaceOnUse" x1="212.18" y1="-14.9028" x2="222.443" y2="155.007">
		<stop  offset="0" style="stop-color:#EC4C7C"/>
		<stop  offset="1" style="stop-color:#EF8540"/>
	</linearGradient>
	<polygon class="lt19" points="194.9,136.4 204.6,136.4 204.6,155.9 224.1,155.9 233.9,155.9 233.9,136.4 243.6,136.4 243.6,68.2 
		233.9,68.2 233.9,58.5 214.4,58.5 214.4,68.2 224.1,68.2 224.1,136.4 214.4,136.4 214.4,68.2 204.6,68.2 204.6,78 194.9,78 	"/>
	<linearGradient id="SVGID_21_" gradientUnits="userSpaceOnUse" x1="82.568" y1="-7.0739" x2="92.831" y2="162.8359">
		<stop  offset="0" style="stop-color:#EC4C7C"/>
		<stop  offset="1" style="stop-color:#EF8540"/>
	</linearGradient>
	<polygon class="lt20" points="39,29.2 68.2,29.2 68.2,39 58.5,39 58.5,146.2 48.7,146.2 48.7,155.9 48.7,165.7 68.2,165.7 
		68.2,155.9 78,155.9 78,146.2 87.7,146.2 87.7,126.7 78,126.7 78,29.2 97.4,29.2 97.4,146.2 107.2,146.2 107.2,165.7 126.7,165.7 
		126.7,146.2 116.9,146.2 116.9,68.2 126.7,68.2 126.7,136.4 136.4,136.4 136.4,155.9 155.9,155.9 155.9,136.4 146.2,136.4 
		146.2,68.2 136.4,68.2 136.4,58.5 116.9,58.5 116.9,19.5 126.7,19.5 126.7,9.7 116.9,9.7 107.2,9.7 97.4,9.7 97.4,19.5 58.5,19.5 
		58.5,9.7 39,9.7 39,0 19.5,0 19.5,19.5 39,19.5 	"/>
	<linearGradient id="SVGID_22_" gradientUnits="userSpaceOnUse" x1="258.0883" y1="-17.6758" x2="268.3513" y2="152.234">
		<stop  offset="0" style="stop-color:#EC4C7C"/>
		<stop  offset="1" style="stop-color:#EF8540"/>
	</linearGradient>
	<polygon class="lt21" points="263.1,165.7 282.6,165.7 282.6,146.2 272.9,146.2 272.9,68.2 263.1,68.2 263.1,58.5 253.4,58.5 
		253.4,68.2 253.4,146.2 263.1,146.2 	"/>
	<linearGradient id="SVGID_23_" gradientUnits="userSpaceOnUse" x1="285.0012" y1="-19.3014" x2="295.2642" y2="150.6084">
		<stop  offset="0" style="stop-color:#EC4C7C"/>
		<stop  offset="1" style="stop-color:#EF8540"/>
	</linearGradient>
	<polygon class="lt22" points="282.6,136.4 292.3,136.4 292.3,155.9 311.8,155.9 311.8,136.4 302.1,136.4 302.1,68.2 292.3,68.2 
		292.3,58.5 272.9,58.5 272.9,68.2 282.6,68.2 	"/>
	<linearGradient id="SVGID_24_" gradientUnits="userSpaceOnUse" x1="332.9622" y1="-22.1984" x2="343.2253" y2="147.7114">
		<stop  offset="0" style="stop-color:#EC4C7C"/>
		<stop  offset="1" style="stop-color:#EF8540"/>
	</linearGradient>
	<path class="lt23" d="M341.1,97.4v29.2h-9.7v-39h29.2V58.5h-9.7v-9.7h-19.5h-9.7v9.7h-9.7v68.2h9.7v9.7h19.5h9.7v-9.7h9.7v-19.5
		h9.7v-9.7H341.1z M331.3,58.5h9.7V78h-9.7V58.5z"/>
	<linearGradient id="SVGID_25_" gradientUnits="userSpaceOnUse" x1="180.5427" y1="-12.9918" x2="190.8057" y2="156.918">
		<stop  offset="0" style="stop-color:#EC4C7C"/>
		<stop  offset="1" style="stop-color:#EF8540"/>
	</linearGradient>
	<polygon class="lt24" points="194.9,68.2 194.9,58.5 175.4,58.5 175.4,68.2 185.2,68.2 	"/>
	<linearGradient id="SVGID_26_" gradientUnits="userSpaceOnUse" x1="162.1664" y1="-11.8818" x2="172.4294" y2="158.028">
		<stop  offset="0" style="stop-color:#EC4C7C"/>
		<stop  offset="1" style="stop-color:#EF8540"/>
	</linearGradient>
	<polygon class="lt25" points="165.7,146.2 185.2,146.2 185.2,126.7 175.4,126.7 175.4,68.2 165.7,68.2 165.7,58.5 155.9,58.5 
		155.9,68.2 155.9,126.7 165.7,126.7 	"/>
	<linearGradient id="SVGID_27_" gradientUnits="userSpaceOnUse" x1="212.18" y1="-14.9028" x2="222.443" y2="155.007">
		<stop  offset="0" style="stop-color:#EC4C7C"/>
		<stop  offset="1" style="stop-color:#EF8540"/>
	</linearGradient>
	<polygon class="lt26" points="194.9,136.4 204.6,136.4 204.6,155.9 224.1,155.9 233.9,155.9 233.9,136.4 243.6,136.4 243.6,68.2 
		233.9,68.2 233.9,58.5 214.4,58.5 214.4,68.2 224.1,68.2 224.1,136.4 214.4,136.4 214.4,68.2 204.6,68.2 204.6,78 194.9,78 	"/>
	<linearGradient id="SVGID_28_" gradientUnits="userSpaceOnUse" x1="82.568" y1="-7.0739" x2="92.831" y2="162.8359">
		<stop  offset="0" style="stop-color:#EC4C7C"/>
		<stop  offset="1" style="stop-color:#EF8540"/>
	</linearGradient>
	<polygon class="lt27" points="39,29.2 68.2,29.2 68.2,39 58.5,39 58.5,146.2 48.7,146.2 48.7,155.9 48.7,165.7 68.2,165.7 
		68.2,155.9 78,155.9 78,146.2 87.7,146.2 87.7,126.7 78,126.7 78,29.2 97.4,29.2 97.4,146.2 107.2,146.2 107.2,165.7 126.7,165.7 
		126.7,146.2 116.9,146.2 116.9,68.2 126.7,68.2 126.7,136.4 136.4,136.4 136.4,155.9 155.9,155.9 155.9,136.4 146.2,136.4 
		146.2,68.2 136.4,68.2 136.4,58.5 116.9,58.5 116.9,19.5 126.7,19.5 126.7,9.7 116.9,9.7 107.2,9.7 97.4,9.7 97.4,19.5 58.5,19.5 
		58.5,9.7 39,9.7 39,0 19.5,0 19.5,19.5 39,19.5 	"/>
	<linearGradient id="SVGID_29_" gradientUnits="userSpaceOnUse" x1="258.0883" y1="-17.6758" x2="268.3513" y2="152.234">
		<stop  offset="0" style="stop-color:#EC4C7C"/>
		<stop  offset="1" style="stop-color:#EF8540"/>
	</linearGradient>
	<polygon class="lt28" points="263.1,165.7 282.6,165.7 282.6,146.2 272.9,146.2 272.9,68.2 263.1,68.2 263.1,58.5 253.4,58.5 
		253.4,68.2 253.4,146.2 263.1,146.2 	"/>
	<linearGradient id="SVGID_30_" gradientUnits="userSpaceOnUse" x1="285.0012" y1="-19.3014" x2="295.2642" y2="150.6084">
		<stop  offset="0" style="stop-color:#EC4C7C"/>
		<stop  offset="1" style="stop-color:#EF8540"/>
	</linearGradient>
	<polygon class="lt29" points="282.6,136.4 292.3,136.4 292.3,155.9 311.8,155.9 311.8,136.4 302.1,136.4 302.1,68.2 292.3,68.2 
		292.3,58.5 272.9,58.5 272.9,68.2 282.6,68.2 	"/>
	<linearGradient id="SVGID_31_" gradientUnits="userSpaceOnUse" x1="332.9622" y1="-22.1984" x2="343.2253" y2="147.7114">
		<stop  offset="0" style="stop-color:#EC4C7C"/>
		<stop  offset="1" style="stop-color:#EF8540"/>
	</linearGradient>
	<path class="lt30" d="M341.1,97.4v29.2h-9.7v-39h29.2V58.5h-9.7v-9.7h-19.5h-9.7v9.7h-9.7v68.2h9.7v9.7h19.5h9.7v-9.7h9.7v-19.5
		h9.7v-9.7H341.1z M331.3,58.5h9.7V78h-9.7V58.5z"/>
</g>
</svg>
