<!-- Generator: Adobe Illustrator 23.0.1, SVG Export Plug-In  -->
<svg version="1.1" xmlns="http://www.w3.org/2000/svg" xmlns:xlink="http://www.w3.org/1999/xlink" x="0px" y="0px"
	 width="903.94px" height="249.43px" viewBox="0 0 903.94 249.43" style="enable-background:new 0 0 903.94 249.43;"
	 xml:space="preserve">
<style type="text/css">
	.st0{fill:#F3F3F3;}
	.st1{fill:#81CFFB;}
	.st2{fill:#0A0A1E;}
	.st3{fill:#1F1F1F;}
	.st4{fill:#FAE3B5;}
	.st5{fill:#985D2E;}
	.st6{fill:#F7BC7A;}
	.st7{fill:#43A7F1;}
	.st8{fill:#4BCEF0;}
	.st9{fill:#E5E5E5;}
	.st10{fill:#261736;}
	.st11{fill:#92908A;}
	.st12{fill:#2F61BD;}
	.st13{fill:#A3A2A7;}
	.st14{fill:#283246;}
	.st15{fill:#FEFEFE;}
</style>
<defs>
</defs>
<g>
	<path class="st0" d="M795.98,248.92c-39.41,0-78.82,0-118.23,0c-0.22-0.2-0.48-0.36-0.65-0.6c-0.16-0.22-0.31-0.51-0.31-0.76
		c-0.02-10.19-0.01-20.37-0.01-30.85c-3.51,0-6.74,0-10.61,0c0,3.15,0,6.62,0,10.3c-7.46,0-14.3,0-21.51,0c0-3.32,0-6.75,0-10.52
		c3.35,0,6.57,0,10.12,0c0-7.13,0-13.97,0-21.41c3.71-0.19,7.17-0.37,10.92-0.56c0-6.94,0-13.77,0-20.57
		c3.57-1.91,7.29-0.01,10.93-1.39c0-3.14,0-6.36,0-10.22c10.96,0,21.63,0,32.6,0c0-3.85,0-7.07,0-10.62c28.8,0,57.3,0,86.34,0
		c0.83-4.61,0.29-9.05,0.39-13.43c0.1-4.47,0.02-8.94,0.02-13.72c3.53,0,6.76,0,9.94,0c1.94-3.57,0.04-7.29,1.41-10.94
		c3.12,0,6.35,0,10.21,0c0-7.34,0-14.41,0-21.64c3.85,0,7.07,0,10.62,0c0,3.27,0,6.48,0,9.76c3.56,1.92,7.27,0.11,10.93,1.35
		c0,3.1,0,6.33,0,9.97c10.96,0,21.62,0,32.6,0c0-6.86,0-13.7,0-20.9c3.74,0,7.17,0,10.93,0c0,3.39,0,6.62,0,10.16
		c3.51,0,6.75,0,10.61,0c0,10.95,0,21.63,0,32.6c3.84,0,7.07,0,10.7,0c0,14.58,0,28.84,0,43.43c-3.26,0-6.49,0-10.35,0
		c0,7.34,0,14.41,0,21.77c-3.85,0-7.08,0-10.62,0c0,3.51,0,6.75,0,10.61c-10.95,0-21.63,0-32.55,0c0,5.65,0,10.68,0,16.35
		c6.86,0,13.93,0,21.29,0c0,3.85,0,7.07,0,10.93c7.35,0,14.42,0,21.62,0c0,3.85,0,7.08,0,10.91c-25.31,0-50.5,0-75.68,0
		c0-3.53,0-7.07,0-10.88c3.85,0,7.07,0,10.48,0c0-9.17,0-18.01,0-27.17c-3.58,0-6.8,0-10.65,0c0-7.36,0-14.42,0-21.76
		c-3.86,0-7.08,0-10.92,0c0-5.55,0-10.82,0-15.74c-3.87,0-7.1,0-10.58,0c0,10.49,0,20.67-0.01,30.86c0,0.26-0.16,0.54-0.33,0.76
		c-0.17,0.23-0.43,0.39-1.05,0.93c-2.83,0-6.05,0-9.55,0c0,3.57,0,6.79,0,10.63c-10.96,0-21.63,0-32.59,0c0,3.85,0,7.08,0,10.92
		c-7.36,0-14.43,0-21.2,0c0,3.86,0,7.09,0,10.61c21.3,0,42.3,0,63.3,0.01c0.26,0,0.55,0.13,0.78,0.27c0.25,0.16,0.44,0.4,0.64,0.59
		C795.98,242.3,795.98,245.61,795.98,248.92z M850,146.29c-7.63,0-14.44,0-21.02,0c0,3.74,0,7.15,0,10.21c7.3,0,14.11,0,21.02,0
		C850,152.98,850,149.76,850,146.29z M861.31,146.12c0,4,0,7.22,0,10.69c3.86,0,7.42,0.03,10.97-0.01c3.48-0.04,6.96-0.14,10.08-0.2
		c0-3.93,0-7.16,0-10.48C875.24,146.12,868.43,146.12,861.31,146.12z M871.67,173.38c-5.83,0-10.84,0-16.44,0
		c1.04,3.7-0.59,7.24,0.84,10.21c5.5,0,10.51,0,15.6,0C871.67,180.06,871.67,176.85,871.67,173.38z"/>
	<path class="st1" d="M221.67,108.05c-3.31,0-6.62,0-10.61,0c-0.07-3.45-0.18-6.95-0.21-10.45c-0.04-3.56-0.01-7.13-0.01-11
		c-3.57,0-6.8,0-10.43,0c0-14.58,0-28.84,0-43.43c3.25,0,6.47,0,10.34,0c0-3.75,0-7.19,0-10.94c3.85,0,7.08,0,10.61,0
		c0-10.75,0-21.19,0-32.1c3.72,0,7.15,0,10.92,0c0,6.73,0,13.57,0,20.81c10.96,0,21.62,0,32.6,0c0-3.25,0-6.48,0-10.34
		c3.75,0,7.19,0,10.94,0c0-3.85,0-7.08,0-10.61c3.51,0,6.75,0,10.61,0c0,10.33,0,21,0,31.97c7.45,0,14.29,0,21.53,0
		c0,16.38,0,32.45,0,48.84c-3.25,0-6.47,0-10.33,0c0,5.53,0,10.8,0,16.35c-3.85,0-7.08,0-10.93,0c0,3.81,0,7.35,0,10.88
		c-3.47,0-6.94,0-10.84,0c0,3.9,0,7.37,0,10.84c0,7.22,0,14.45,0,21.67c-3.61,0-7.22,0-10.84,0c0-3.47,0-6.94,0-10.84
		c-3.9,0-7.37,0-10.84,0c0-3.61,0-7.22,0-10.84c0-3.47,0-6.94,0-10.84c-3.9,0-7.37,0-10.84,0c-3.61,0-7.22,0-10.84,0
		C228.89,108.05,225.28,108.05,221.67,108.05z M237.61,64.56c0-4.01,0-7.24,0-10.69c-3.87,0-7.43-0.03-10.98,0.01
		c-3.48,0.03-6.95,0.13-10.06,0.2c0,3.96,0,7.18,0,10.48C223.69,64.56,230.5,64.56,237.61,64.56z M280.96,64.55
		c0-3.98,0-7.2,0-10.24c-7.34,0-14.37,0-21.07,0c0,3.68,0,6.9,0,10.24C267.01,64.55,273.82,64.55,280.96,64.55z"/>
	<path class="st2" d="M622.6,129.72c0,6.92,0,13.85,0,20.94c-3.25,1.79-6.96-0.07-10.62,1.22c0,3.09,0,6.33,0,9.54
		c-3.59,1.78-7.3-0.05-10.94,1.32c0,3.18,0,6.42,0,9.98c-3.5,0-6.73,0-10.7,0c-0.52,12.81-0.15,25.33-0.22,37.82
		c-0.07,12.6-0.02,25.2-0.02,38.08c-28.82,0-57.33,0-86.26,0c0-3.17,0-6.61,0-10.39c3.21,0,6.44,0,10.04,0c0-10.97,0-21.63,0-32.62
		c-3.38,0-6.61,0-10.46,0c0-21.9,0-43.48,0-65.07c3.52,0,7.05,0,10.6,0c0.21,4.03,0.39,7.47,0.56,10.84c3.92,0,7.21,0,10.51,0
		c0,3.52,0,7.05,0,10.36c4.05,0,7.46,0,10.84,0c0-3.77,0-7.07,0-10.36c7.22,0,14.45,0,21.67,0c0,3.47,0,6.94,0,10.84
		c3.9,0,7.37,0,10.84,0c3.51,0,7.01,0,10.31,0c1.27-3.88-0.44-7.54,1.33-11.02c6.83,0,13.62,0,20.87,0c0-7.32,0-14.4,0-21.49
		c3.61,0,7.22,0,10.84,0S618.99,129.72,622.6,129.72z M547.45,173.07c-1.7,3.24,0.06,6.93-1.24,10.9c-3.2,0-6.67,0-10.1,0
		c0,3.84,0,7.05,0,10.45c10.82,0,21.45,0,32.32,0c0-3.89,0.07-7.45-0.02-11.02c-0.09-3.46,0.44-6.99-0.44-10.33
		C560.84,173.07,554.25,173.07,547.45,173.07z M514.56,173.23c0,7.64,0,14.44,0,21.01c3.74,0,7.15,0,10.21,0c0-7.3,0-14.11,0-21.01
		C521.24,173.23,518.02,173.23,514.56,173.23z M579.09,205.86c-7.55,0-14.37,0-21.05,0c0,3.73,0,7.16,0,10.27
		c7.27,0,14.08,0,21.05,0C579.09,212.63,579.09,209.42,579.09,205.86z"/>
	<path class="st3" d="M503.41,118.88c-3.31,0-6.61,0-10.62,0c-0.55-14.23,0.04-28.52-0.32-43.09c-3.44,0-6.66,0-10.31,0
		c0-7.34,0-14.39,0-21.76c3.2,0,6.43,0,10.29,0c0-3.72,0-7.19,0-10.93c3.84,0,7.08,0,10.63,0c0-3.5,0-6.73,0-10.09
		c3.57-1.79,7.25-0.09,10.91-1.26c0-3.11,0-6.33,0-10.19c3.71,0,7.18,0,10.93,0c0-3.84,0-7.07,0-10.67c10.96,0,21.61,0,32.58,0
		c0,3.34,0,6.56,0,10.12c10.74,0,21.17,0,31.9,0c1.53,3.57,0.05,7.23,1.09,10.89c3.11,0,6.34,0,10.21,0c0,3.71,0,7.18,0,10.93
		c3.84,0,7.07,0,10.69,0c0,10.96,0,21.61,0,32.58c-3.29,0-6.52,0-10.37,0c0,10.96,0,21.62,0,32.58c-3.84,0-7.07,0-10.92,0
		c0,3.81,0,7.34,0,10.88c-3.61,0-7.22,0-10.84,0c0-17.95,0-35.9,0-54.18c-4.12,0-7.69,0.03-11.25-0.01
		c-3.49-0.04-6.98-0.14-10.74-0.22c0-3.93,0-7.16,0-10.65c-7.14,0-13.98,0-21.43,0c0-3.73,0-7.17,0-10.58c-3.86,0-7.08,0-10.29,0
		c-1.32,3.54,0.49,7.24-1.27,10.82c-3.21,0-6.43,0-9.55,0c-1.27,3.65,0.52,7.35-1.33,10.92c-3.25,0-6.48,0-9.98,0
		c0,14.09,0,27.87,0.01,41.65c0,0.26,0.13,0.55,0.28,0.78c0.15,0.25,0.39,0.45,0.56,0.63c3.37,0,6.68,0,9.98,0
		c0,3.61,0,7.22,0,10.84C510.63,118.88,507.02,118.88,503.41,118.88z"/>
	<path class="st4" d="M351.7,129.72c0-12.32,0-24.64,0-37.32c-3.24-1.5-6.9,0.09-10.54-1.01c0-13.95,0-27.99,0-42.38
		c2.95-1.59,6.66,0.22,10.3-1.02c0-8.52,0-17.16,0-25.75c3.56-1.91,7.27-0.02,10.91-1.38c0-4.93,0-9.96,0-15.37
		c21.78,0,43.25,0,65.03,0c0,5.07,0,10.09,0,15.13c3.59,1.64,7.28-0.07,10.92,1.22c0,3.25,0,6.47,0,10.03c3.5,0,6.72,0,9.58,0
		c0.59,0.53,0.84,0.7,1.01,0.94c0.16,0.22,0.31,0.51,0.31,0.77c0.01,13.78,0.01,27.57,0.01,41.98c-3.77,0-7.3,0-10.84,0
		c0-8.93,0-17.85,0-26.58c-3.92-1.24-7.6,0.45-11.15-1.33c0-5.14,0-10.16,0-15.43c-10.47,0-20.64,0-30.8,0.01
		c-0.26,0-0.55,0.14-0.77,0.29c-0.24,0.16-0.42,0.42-0.93,0.96c0,4.69,0,9.72,0,14.96c-7.33,0.1-14.38-0.07-21.06,0.1
		c0,14.92,0,28.95,0,42.87c3.64,1.09,7.3-0.5,10.54,1.02c0,5.44,0,10.54,0,15.64c0,3.61,0,7.22,0,10.84s0,7.22,0,10.84
		c0,3.61,0,7.22,0,10.84c-3.61,0-7.22,0-10.84,0c-0.21-1.69,0.5-3.48-0.76-5.42c-6.83,0-13.87,0-20.91,0
		C351.7,133.33,351.7,131.53,351.7,129.72z"/>
	<path class="st5" d="M91.63,151.39c0-10.51,0-21.01,0-32.15c-3.36-0.19-6.8-0.38-10.53-0.59c0-14.08,0-28.11,0-42.7
		c2.93-1.23,6.58,0.22,10.23-0.8c0-6.72,0-13.55,0-20.14c0.5-0.47,0.69-0.71,0.94-0.87c0.23-0.14,0.52-0.27,0.78-0.27
		c20.98-0.01,41.96-0.01,63.27-0.01c0,3.42,0,6.64,0,10.11c3.57,1.59,7.23,0.06,11.17,1.21c0,6.94,0,14.07,0,21.19
		c-3.54,0-7.07,0-10.89,0c0-3.86,0-7.09,0-10.46c-3.77,0-7.2,0-10.94,0c0,3.6,0,6.83,0,9.95c-3.65,1.37-7.37-0.53-10.94,1.41
		c0,3.19,0,6.42,0,9.94c-3.88,0-7.45-0.03-11.02,0.01c-3.48,0.03-6.96,0.13-10.73,0.2c0,4,0,7.23,0,10.73c-3.57,0-6.8,0-10.09,0
		c0,10.98,0,21.64,0,32.14c3.63,0,6.86,0,9.98,0c1.27-3.61-0.59-7.33,1.2-10.57c3.48,0,6.79,0,10.1,0c0,3.53,0,7.06,0,10.84
		c11.26-0.03,21.89,0.03,32.51-0.04c0-4.2,0-7.5,0-10.8c3.61,0,7.22,0,10.84,0c3.5,0,7,0,10.65,0c0,3.73,0,6.92,0,10.71
		c-3.4,0-6.81,0-10.65,0c0,7.65,0,14.73,0,21.8c-3.52,0-7.05,0-10.37,0c-1.1,3.95,0.36,7.6-0.89,10.54c-10.95,0-21.37,0-31.68,0
		c-1.09-3.64,0.5-7.3-1.02-10.54c-3.63,0-6.92,0-10.22,0c0-3.49,0-6.98,0-10.84C105.74,151.39,98.69,151.39,91.63,151.39z"/>
	<path class="st6" d="M384.21,108.05c0-5.1,0-10.2,0-15.64c-3.24-1.51-6.9,0.08-10.54-1.02c0-13.93,0-27.95,0-42.87
		c6.68-0.17,13.73,0,21.06-0.1c0-5.24,0-10.27,0-14.96c0.52-0.54,0.69-0.8,0.93-0.96c0.22-0.15,0.51-0.29,0.77-0.29
		c10.16-0.01,20.33-0.01,30.8-0.01c0,5.27,0,10.3,0,15.43c3.55,1.79,7.23,0.09,11.15,1.33c0,8.73,0,17.66,0,26.58
		c0,5.42,0,10.84,0,16.25c-0.23,1.71,0.54,3.54-0.65,5.22c-3.39,0.18-6.82,0.36-10.18,0.54c0,3.91,0,7.2,0,10.5
		c-3.61,0-7.22,0-10.84,0C405.88,108.05,395.04,108.05,384.21,108.05z"/>
	<path class="st7" d="M427.55,173.07c0,21.67,0,43.34,0,65.02c-3.5,0-7,0-10.84,0c0-11.2,0-21.85,0-32.51c0-3.47,0-6.94,0-10.84
		c-3.9,0-7.37,0-10.84,0c0-3.53,0-7.05,0-10.84c-4.16,0-7.73-0.03-11.29,0.01c-3.48,0.03-6.96,0.13-10.39,0.2c0,4.03,0,7.33,0,10.62
		c-3.51,0-7.03,0-10.84,0c0,18.44,0,36.31,0,54.18c-7.11,0-14.22,0-21.49,0c0-3.75,0-6.95,0-10.78c3.46,0,6.9,0,10.66,0
		c0-22.1,0-43.59,0-65.07c3.49,0,6.98,0,10.84,0c0-7.56,0-14.62,0-21.67c3.47,0,6.94,0,10.84,0c0-3.9,0-7.37,0-10.84
		c7.22,0,14.45,0,21.67,0c3.61,0,7.22,0,10.84,0c0,3.47,0,6.94,0,10.84c3.9,0,7.37,0,10.84,0
		C427.55,158.62,427.55,165.84,427.55,173.07z"/>
	<path class="st8" d="M275.85,140.56c0-7.22,0-14.45,0-21.67c3.61,0,7.22,0,10.84,0c0,3.47,0,6.94,0,10.84c3.9,0,7.37,0,10.84,0
		c0,17.75,0,35.5,0,53.47c-3.24,1.74-6.95-0.07-10.6,1.17c0,10.33,0,20.78,0,31.86c-3.72,0-7.19,0-10.93,0c0,11.08,0,21.52,0,32.33
		c-3.74,0-7.17,0-10.93,0c0-10.62,0-21.07,0-32.14c-3.81,0-7.35,0-10.88,0c0-3.61,0-7.22,0.12-10.98c3.39-0.14,6.89-0.14,10.33-0.14
		c0-7.28,0-14.28,0-21.18c-3.59,0-6.79,0-10.21,0c0,7.29,0,14.37-0.12,21.32c-3.59,0.14-7.05,0.14-10.95,0.14c0,3.9,0,7.37,0,10.84
		c0,10.52,0,21.04,0,31.83c-3.32,1.66-6.86-0.07-10.84,1.18c0-26.01,0-51.19,0-76.36c17.95,0,35.9,0,54.18,0
		c0-4.12,0.03-7.69-0.01-11.25c-0.04-3.49-0.14-6.98-0.21-10.42c-4.01,0-7.31,0-10.62,0C275.85,147.78,275.85,144.17,275.85,140.56z
		"/>
	<path class="st9" d="M795.98,248.92c0-3.31,0-6.62,0-9.96c-0.2-0.19-0.39-0.43-0.64-0.59c-0.23-0.14-0.52-0.27-0.78-0.27
		c-21-0.01-42.01-0.01-63.3-0.01c0-3.52,0-6.75,0-10.61c6.77,0,13.84,0,21.2,0c0-3.84,0-7.07,0-10.92c10.95,0,21.62,0,32.59,0
		c0-3.84,0-7.06,0-10.63c3.5,0,6.72,0,9.55,0c0.62-0.54,0.88-0.7,1.05-0.93c0.16-0.22,0.32-0.5,0.33-0.76
		c0.02-10.18,0.01-20.37,0.01-30.86c3.48,0,6.71,0,10.58,0c0,4.92,0,10.18,0,15.74c3.84,0,7.07,0,10.92,0c0,7.34,0,14.4,0,21.76
		c3.84,0,7.07,0,10.65,0c0,9.16,0,18.01,0,27.17c-3.41,0-6.63,0-10.48,0c0,3.81,0,7.35,0,10.88
		C810.43,248.92,803.21,248.92,795.98,248.92z"/>
	<path class="st10" d="M113.18,162.36c3.43-0.13,6.72-0.13,10.35-0.13c1.52,3.24-0.08,6.9,1.02,10.54c10.31,0,20.73,0,31.68,0
		c1.25-2.95-0.21-6.59,0.89-10.54c3.32,0,6.85,0,10.37,0c0,10.66,0,21.31,0,32.51c-3.83,0-7.33,0-10.84,0c-3.61,0-7.22,0-10.84,0
		c-14.45,0-28.9,0-43.34,0c-3.29,0-6.59,0-10.26,0c-1.43-3.24,0.08-6.89-1.05-10.84c-3.32,0-6.84,0-10.36,0c0-3.61,0-7.22,0-10.84
		c3.49,0,6.98,0,10.84,0c0-7.56,0-14.62,0-21.67c7.06,0,14.11,0,21.67,0C113.3,155.25,113.3,158.74,113.18,162.36
		c-3.36,0.13-6.85,0.13-10.32,0.13c0,3.67,0,7.07,0,10.38c3.57,0,6.76,0,10.2,0C113.05,169.21,113.05,165.72,113.18,162.36z"/>
	<path class="st6" d="M124.14,129.72c-3.31,0-6.62,0-10.1,0c-1.79,3.25,0.07,6.96-1.2,10.57c-3.12,0-6.34,0-9.98,0
		c0-10.49,0-21.15,0-32.14c3.29,0,6.52,0,10.09,0c0-3.5,0-6.73,0-10.73c3.77-0.07,7.25-0.17,10.73-0.2
		c3.57-0.03,7.14-0.01,11.02-0.01c0-3.52,0-6.75,0-9.94c3.57-1.94,7.3-0.04,10.94-1.41c0-3.12,0-6.35,0-9.95c3.74,0,7.18,0,10.94,0
		c0,3.37,0,6.61,0,10.46c3.82,0,7.35,0,10.89,0c0,10.84,0,21.67,0,32.51c0,3.61,0,7.22,0,10.84c-3.61,0-7.22,0-10.84,0
		c0-3.53,0-7.06,0-10.84c-11.26,0.03-21.89-0.03-32.51,0.04C124.14,123.12,124.14,126.42,124.14,129.72z"/>
	<path class="st10" d="M102.47,227.25c0-7.22,0-14.45,0-21.67c14.45,0,28.9,0,43.34,0c3.61,0,7.22,0,10.84,0c0,7.06,0,14.11,0,21.67
		c-3.85,0-7.35,0-10.84,0c-3.61,0-7.22,0-10.84,0c-7.22,0-14.45,0-21.67,0C109.69,227.25,106.08,227.25,102.47,227.25z"/>
	<path class="st8" d="M254.17,118.88c0,3.61,0,7.22,0,10.84c0,3.61,0,7.22,0,10.84c-3.47,0-6.94,0-10.84,0c0,3.9,0,7.37,0,10.84
		c-3.61,0-7.22,0-10.84,0c-3.61,0-7.22,0-10.84,0c-3.61,0-7.22,0-10.84,0c0-10.66,0-21.31,0-32.51c3.83,0,7.33,0,10.84,0
		c3.61,0,7.22,0,10.84,0c0,3.52,0,7.05,0,10.36c4.04,0,7.45,0,10.84,0c0-3.77,0-7.07,0-10.36
		C246.95,118.88,250.56,118.88,254.17,118.88z"/>
	<path class="st11" d="M579.26,118.88c3.61,0,7.22,0,10.84,0c0,3.47,0,6.94,0,10.84c3.9,0,7.37,0,10.84,0c0,7.08,0,14.17,0,21.49
		c-7.25,0-14.04,0-20.87,0c-1.77,3.48-0.06,7.14-1.33,11.02c-3.3,0-6.8,0-10.31,0c0-3.47,0-6.94,0-10.84c-3.9,0-7.37,0-10.84,0
		c0-7.22,0-14.45,0-21.67c7.06,0,14.11,0,21.67,0C579.26,125.87,579.26,122.38,579.26,118.88z"/>
	<path class="st4" d="M427.55,108.05c0-3.29,0-6.58,0-10.5c3.36-0.18,6.8-0.36,10.18-0.54c1.2-1.68,0.42-3.51,0.65-5.22
		c3.51,0,7.02,0,10.67,0c0,14.52,0,28.48,0,42.8c-3.08,1.43-6.72-0.14-10.1,0.85c-1.1,1.59-0.34,3.4-0.57,5.11
		c-3.61,0-7.22,0-10.84,0c0-3.61,0-7.22,0-10.84C427.55,122.5,427.55,115.27,427.55,108.05z"/>
	<path class="st7" d="M232.5,151.39c3.61,0,7.22,0,10.84,0c0,3.52,0,7.05,0,10.36c4.04,0,7.45,0,10.84,0c0-3.77,0-7.07,0-10.36
		c3.61,0,7.22,0,10.84,0c0,3.52,0,7.05,0,10.36c4.04,0,7.45,0,10.84,0c0-3.77,0-7.07,0-10.36c3.31,0,6.61,0,10.62,0
		c0.07,3.44,0.17,6.93,0.21,10.42c0.04,3.56,0.01,7.13,0.01,11.25c-18.28,0-36.23,0-54.18,0C232.5,165.84,232.5,158.62,232.5,151.39
		z"/>
	<path class="st11" d="M503.41,118.88c3.61,0,7.22,0,10.84,0c0,3.49,0,6.98,0,10.84c7.56,0,14.62,0,21.67,0c0,7.22,0,14.45,0,21.67
		c-3.61,0-7.22,0-10.84,0c-3.29,0-6.59,0-10.51,0c-0.18-3.37-0.35-6.81-0.56-10.84c-3.56,0-7.08,0-10.6,0
		C503.41,133.33,503.41,126.11,503.41,118.88z"/>
	<path class="st12" d="M416.72,205.57c0,10.66,0,21.31,0,32.51c3.83,0,7.33,0,10.84,0c0,3.61,0,7.22,0,10.84
		c-7.22,0-14.45,0-21.67,0c0-14.45,0-28.9,0-43.34C409.49,205.57,413.1,205.57,416.72,205.57z"/>
	<path class="st6" d="M351.7,129.72c0,1.81,0,3.61,0,5.42c0,9.03,0,18.06,0,27.09c-3.3,0-6.59,0-10.22,0
		c-1.52-3.24,0.08-6.9-1.02-10.55c-3.1,0-6.32,0-9.99,0c0-7.31,0-14.34,0-21.96C337.46,129.72,344.58,129.72,351.7,129.72z"/>
	<path class="st6" d="M622.6,129.72c-3.61,0-7.22,0-10.84,0c0-10.73,0-21.45,0-32.34c7.38,0,14.2,0,21.35,0c0,6.88,0,13.7,0,21.11
		c-2.91,1.2-6.55-0.22-10.51,0.85C622.6,122.67,622.6,126.19,622.6,129.72z"/>
	<path class="st13" d="M373.37,248.92c0-17.87,0-35.74,0-54.18c3.81,0,7.32,0,10.84,0c0,10.84,0,21.67,0,32.51
		c0,7.22,0,14.45,0,21.67C380.6,248.92,376.98,248.92,373.37,248.92z"/>
	<path class="st13" d="M405.88,205.57c0,14.45,0,28.9,0,43.34c-3.61,0-7.22,0-10.84,0c0-7.22,0-14.45,0-21.67
		c0-7.06,0-14.11,0-21.67C398.9,205.57,402.39,205.57,405.88,205.57z"/>
	<ellipse class="st3" cx="124.14" cy="200.16" rx="30.65" ry="7.66"/>
	<path class="st6" d="M69.7,172.81c-6.84,0-13.94,0-21.22,0c0-7.05,0-13.85,0-21.03c6.94,0,13.95,0,21.22,0
		C69.7,158.87,69.7,165.97,69.7,172.81z"/>
	<path class="st6" d="M427.55,140.56c3.61,0,7.22,0,10.84,0c0,6.9,0,13.8,0,21.13c3.24,1.35,6.88-0.09,10.84,1
		c0,3.32,0,6.85,0,10.38c-7.22,0-14.45,0-21.67,0c0-7.22,0-14.45,0-21.67C427.55,147.78,427.55,144.17,427.55,140.56z"/>
	<path class="st6" d="M373.37,151.39c0,7.06,0,14.11,0,21.67c-3.85,0-7.35,0-10.84,0c-3.47,0-6.94,0-10.84,0c0-3.9,0-7.37,0-10.84
		c3.53,0,7.05,0,10.84,0c0-4.16-0.03-7.73,0.01-11.29c0.03-3.48,0.13-6.96,0.2-10.39c4.03,0,7.33,0,10.62,0
		C373.37,144.17,373.37,147.78,373.37,151.39z"/>
	<path class="st5" d="M167.48,118.88c0-10.84,0-21.67,0-32.51c3.3,0,6.6,0,10.8,0c0.07,10.62,0.01,21.25,0.04,32.51
		C174.54,118.88,171.01,118.88,167.48,118.88z"/>
	<ellipse class="st7" cx="389.63" cy="238.08" rx="7.66" ry="15.32"/>
	<path class="st8" d="M221.67,162.23c0,6.9,0,13.81,0,21.19c-3.38,0-6.8,0-10.84,0c0-6.94,0-14.06,0-21.19
		C214.44,162.23,218.05,162.23,221.67,162.23z"/>
	<path class="st3" d="M102.47,227.25c3.61,0,7.22,0,10.84,0c0,6.9,0,13.81,0,21.04c-3.31,1.54-6.84-0.04-10.84,1.03
		C102.47,241.5,102.47,234.37,102.47,227.25z"/>
	<path class="st3" d="M134.98,227.25c3.61,0,7.22,0,10.84,0c0,6.9,0,13.81,0,21.19c-3.38,0-6.8,0-10.84,0
		C134.98,241.5,134.98,234.37,134.98,227.25z"/>
	<path class="st1" d="M21.2,124.3c0,3.29,0,6.59,0,10.36c-3.38,0-6.8,0-10.84,0c0-3.31,0-6.84,0-10.36
		C13.97,124.3,17.58,124.3,21.2,124.3z"/>
	<path class="st1" d="M10.36,124.3c-3.29,0-6.59,0-10.36,0c0-3.38,0-6.8,0-10.84c3.31,0,6.84,0,10.36,0
		C10.36,117.08,10.36,120.69,10.36,124.3z"/>
	<circle class="st7" cx="216.25" cy="156.81" r="7.66"/>
	<path class="st7" d="M286.68,118.88c-3.61,0-7.22,0-10.84,0c0-3.47,0-6.94,0-10.84c3.9,0,7.37,0,10.84,0
		C286.68,111.66,286.68,115.27,286.68,118.88z"/>
	<path class="st6" d="M80.8,173.07c0,3.61,0,7.22,0,10.84c-3.47,0-6.94,0-10.84,0c0-3.9,0-7.37,0-10.84
		C73.57,173.07,77.18,173.07,80.8,173.07z"/>
	<path class="st6" d="M449.48,173.32c3.23,0,6.72,0,10.38,0c0,3.44,0,6.62,0,10.2c-3.32,0-6.72,0-10.38,0
		C449.48,180.05,449.48,176.56,449.48,173.32z"/>
	<circle class="st7" cx="292.1" cy="124.3" r="7.66"/>
	<circle class="st7" cx="227.08" cy="113.47" r="7.66"/>
	<path class="st1" d="M10.36,113.47c0-3.29,0-6.59,0-10.36c3.38,0,6.8,0,10.84,0c0,3.31,0,6.84,0,10.36
		C17.58,113.47,13.97,113.47,10.36,113.47z"/>
	<path class="st6" d="M698.46,37.61c0-3.29,0-6.59,0-10.36c3.38,0,6.8,0,10.84,0c0,3.31,0,6.84,0,10.36
		C705.68,37.61,702.07,37.61,698.46,37.61z"/>
	<circle class="st6" cx="151.23" cy="200.16" r="7.66"/>
	<path class="st6" d="M709.29,48.45c0,3.29,0,6.59,0,10.36c-3.38,0-6.8,0-10.84,0c0-3.31,0-6.84,0-10.36
		C702.07,48.45,705.68,48.45,709.29,48.45z"/>
	<path class="st7" d="M243.34,216.41c0-3.47,0-6.94,0-10.84c3.9,0,7.37,0,10.84,0c0,3.61,0,7.22,0,10.84
		C250.56,216.41,246.95,216.41,243.34,216.41z"/>
	<path class="st6" d="M709.29,37.61c3.29,0,6.59,0,10.36,0c0,3.38,0,6.79,0,10.84c-3.31,0-6.84,0-10.36,0
		C709.29,44.84,709.29,41.23,709.29,37.61z"/>
	<path class="st6" d="M698.46,48.45c-3.29,0-6.59,0-10.36,0c0-3.38,0-6.79,0-10.84c3.31,0,6.84,0,10.36,0
		C698.46,41.23,698.46,44.84,698.46,48.45z"/>
	<path class="st1" d="M21.2,113.47c3.29,0,6.59,0,10.36,0c0,3.38,0,6.8,0,10.84c-3.31,0-6.84,0-10.36,0
		C21.2,120.69,21.2,117.08,21.2,113.47z"/>
	<path class="st7" d="M427.55,248.92c0-3.61,0-7.22,0-10.84c3.29,0,6.59,0,10.36,0c0,3.38,0,6.8,0,10.84
		C434.6,248.92,431.08,248.92,427.55,248.92z"/>
	<path class="st14" d="M850,146.29c0,3.48,0,6.69,0,10.21c-6.91,0-13.72,0-21.02,0c0-3.06,0-6.47,0-10.21
		C835.56,146.29,842.37,146.29,850,146.29z"/>
	<path class="st14" d="M861.31,146.12c7.13,0,13.94,0,21.06,0c0,3.33,0,6.55,0,10.48c-3.12,0.07-6.6,0.17-10.08,0.2
		c-3.56,0.04-7.11,0.01-10.97,0.01C861.31,153.34,861.31,150.12,861.31,146.12z"/>
	<path class="st2" d="M871.67,173.38c0,3.48,0,6.69,0,10.21c-5.1,0-10.11,0-15.6,0c-1.43-2.97,0.2-6.5-0.84-10.21
		C860.84,173.38,865.85,173.38,871.67,173.38z"/>
	<path class="st7" d="M237.61,64.56c-7.11,0-13.92,0-21.04,0c0-3.31,0-6.53,0-10.48c3.11-0.06,6.58-0.16,10.06-0.2
		c3.56-0.04,7.12-0.01,10.98-0.01C237.61,57.32,237.61,60.54,237.61,64.56z"/>
	<path class="st7" d="M280.96,64.55c-7.14,0-13.96,0-21.07,0c0-3.34,0-6.56,0-10.24c6.7,0,13.73,0,21.07,0
		C280.96,57.35,280.96,60.58,280.96,64.55z"/>
	<path class="st7" d="M254.17,140.56c0-3.61,0-7.22,0-10.84c3.47,0,6.94,0,10.84,0c0,3.9,0,7.37,0,10.84
		C261.4,140.56,257.79,140.56,254.17,140.56z"/>
	<path class="st7" d="M254.17,118.88c-3.61,0-7.22,0-10.84,0c0-3.61,0-7.22,0-10.84c3.47,0,6.94,0,10.84,0
		C254.17,111.95,254.17,115.42,254.17,118.88z"/>
	<circle class="st8" cx="237.92" cy="113.47" r="7.66"/>
	<circle class="st7" cx="270.43" cy="145.97" r="7.66"/>
	<path class="st14" d="M547.45,173.07c6.8,0,13.39,0,20.51,0c0.88,3.34,0.36,6.87,0.44,10.33c0.09,3.56,0.02,7.13,0.02,11.02
		c-10.87,0-21.49,0-32.32,0c0-3.4,0-6.61,0-10.45c3.43,0,6.9,0,10.1,0C547.51,180,545.75,176.31,547.45,173.07z"/>
	<circle class="st14" cx="546.75" cy="140.56" r="15.32"/>
	<path class="st9" d="M514.56,173.23c3.47,0,6.68,0,10.21,0c0,6.9,0,13.71,0,21.01c-3.06,0-6.46,0-10.21,0
		C514.56,187.67,514.56,180.87,514.56,173.23z"/>
	<path class="st14" d="M579.09,205.86c0,3.57,0,6.78,0,10.27c-6.97,0-13.78,0-21.05,0c0-3.11,0-6.54,0-10.27
		C564.72,205.86,571.54,205.86,579.09,205.86z"/>
	<path class="st14" d="M525.08,151.39c3.61,0,7.22,0,10.84,0c0,3.29,0,6.59,0,10.36c-3.38,0-6.79,0-10.84,0
		C525.08,158.44,525.08,154.92,525.08,151.39z"/>
	<circle class="st14" cx="563" cy="156.81" r="7.66"/>
	<path class="st6" d="M514.37,107.92c-3.43,0.13-6.74,0.13-10.11,0.13c-0.17-0.18-0.41-0.38-0.56-0.63
		c-0.14-0.23-0.28-0.52-0.28-0.78c-0.01-13.78-0.01-27.56-0.01-41.65c3.5,0,6.73,0,9.98,0c1.85-3.57,0.07-7.27,1.33-10.92
		c3.12,0,6.34,0,9.55,0c1.77-3.58-0.05-7.29,1.27-10.82c3.22,0,6.44,0,10.29,0c0,3.41,0,6.85,0,10.58c7.45,0,14.29,0,21.43,0
		c0,3.49,0,6.73,0,10.65c3.76,0.08,7.25,0.18,10.74,0.22c3.56,0.04,7.13,0.01,11.25,0.01c0,18.28,0,36.23,0,54.18
		c-7.12,0-14.25,0-21.17,0c-1.22-3.92,0.44-7.6-1.14-10.84c-3.59,0-6.89,0-10.32-0.13c-0.13-3.36-0.13-6.85-0.13-10.32
		c-3.67,0-7.07,0-10.38,0c0,3.57,0,6.76,0,10.2c3.66,0,7.15,0,10.51,0.13c0.13,3.63,0.13,7.13,0.13,10.96c-11.2,0-21.85,0-32.51,0
		C514.24,115.27,514.24,111.66,514.37,107.92c3.36-0.13,6.85-0.13,10.32-0.13c0-3.67,0-7.07,0-10.38c-3.57,0-6.76,0-10.2,0
		C514.5,101.07,514.5,104.56,514.37,107.92z"/>
	<path class="st6" d="M416.72,140.56c-3.61,0-7.22,0-10.84,0c0-3.49,0-6.98,0-10.84c-7.56,0-14.62,0-21.67,0c0-3.61,0-7.22,0-10.84
		c10.84,0,21.67,0,32.51,0c0,3.61,0,7.22,0,10.84C416.72,133.33,416.72,136.94,416.72,140.56z"/>
	<ellipse class="st2" cx="400.46" cy="113.47" rx="22.99" ry="7.66"/>
	<path class="st15" d="M373.37,140.56c-3.3,0-6.6,0-10.62,0c-0.07,3.43-0.17,6.91-0.2,10.39c-0.04,3.56-0.01,7.12-0.01,11.29
		c-3.78,0-7.31,0-10.84,0c0-9.03,0-18.06,0-27.09c7.04,0,14.08,0,20.91,0C373.87,137.07,373.16,138.87,373.37,140.56z"/>
	<path class="st12" d="M384.21,129.72c7.06,0,14.11,0,21.67,0c0,3.85,0,7.35,0,10.84c-7.22,0-14.45,0-21.67,0
		C384.21,136.94,384.21,133.33,384.21,129.72z"/>
	<path class="st12" d="M373.37,151.39c0-3.61,0-7.22,0-10.84c3.61,0,7.22,0,10.84,0c0,3.47,0,6.94,0,10.84
		C380.31,151.39,376.84,151.39,373.37,151.39z"/>
	<path class="st6" d="M156.65,129.72c0,3.3,0,6.6,0,10.8c-10.62,0.07-21.25,0.01-32.51,0.04c0-3.79,0-7.31,0-10.84
		C134.98,129.72,145.81,129.72,156.65,129.72z"/>
	<path class="st15" d="M416.72,118.88c0-3.61,0-7.22,0-10.84c3.61,0,7.22,0,10.84,0c0,7.22,0,14.45,0,21.67c-3.61,0-7.22,0-10.84,0
		C416.72,126.11,416.72,122.5,416.72,118.88z"/>
	<path class="st12" d="M395.04,227.25c-3.61,0-7.22,0-10.84,0c0-10.84,0-21.67,0-32.51c0-3.3,0-6.6,0-10.62
		c3.43-0.07,6.91-0.17,10.39-0.2c3.56-0.04,7.12-0.01,11.29-0.01c0,3.78,0,7.31,0,10.84c0,3.61,0,7.22,0,10.84
		c-3.49,0-6.98,0-10.84,0C395.04,213.14,395.04,220.19,395.04,227.25z"/>
	<path class="st12" d="M416.72,129.72c3.61,0,7.22,0,10.84,0c0,3.61,0,7.22,0,10.84c0,3.61,0,7.22,0,10.84c-3.47,0-6.94,0-10.84,0
		c0-3.9,0-7.37,0-10.84C416.72,136.94,416.72,133.33,416.72,129.72z"/>
	<path class="st13" d="M405.88,205.57c0-3.61,0-7.22,0-10.84c3.47,0,6.94,0,10.84,0c0,3.9,0,7.37,0,10.84
		C413.1,205.57,409.49,205.57,405.88,205.57z"/>
	<path class="st7" d="M254.41,205.3c0-6.81,0-13.89,0-21.18c3.43,0,6.63,0,10.21,0c0,6.9,0,13.9,0,21.18
		C261.19,205.3,257.68,205.3,254.41,205.3z"/>
	<path class="st6" d="M113.05,162.49c0,3.23,0,6.72,0,10.38c-3.44,0-6.62,0-10.2,0c0-3.32,0-6.71,0-10.38
		C106.32,162.49,109.81,162.49,113.05,162.49z"/>
	<path class="st5" d="M156.65,129.72c-10.84,0-21.67,0-32.51,0c0-3.3,0-6.6,0-10.8c10.62-0.07,21.25-0.01,32.51-0.04
		C156.65,122.66,156.65,126.19,156.65,129.72z"/>
	<path class="st7" d="M243.34,151.39c0-3.47,0-6.94,0-10.84c3.9,0,7.37,0,10.84,0c0,3.61,0,7.22,0,10.84
		C250.56,151.39,246.95,151.39,243.34,151.39z"/>
	<path class="st7" d="M232.5,118.88c3.61,0,7.22,0,10.84,0c0,3.29,0,6.59,0,10.36c-3.38,0-6.8,0-10.84,0
		C232.5,125.93,232.5,122.41,232.5,118.88z"/>
	<path class="st3" d="M546.75,108.05c3.3,0,6.6,0,10.19,0c1.58,3.24-0.07,6.91,1.14,10.84c6.93,0,14.05,0,21.17,0
		c0,3.49,0,6.98,0,10.84c-7.56,0-14.62,0-21.67,0c-7.22,0-14.45,0-21.67,0c-7.06,0-14.11,0-21.67,0c0-3.85,0-7.35,0-10.84
		c10.66,0,21.31,0,32.51,0C546.75,115.05,546.75,111.55,546.75,108.05z"/>
	<path class="st8" d="M243.34,151.39c3.61,0,7.22,0,10.84,0c0,3.29,0,6.59,0,10.36c-3.38,0-6.8,0-10.84,0
		C243.34,158.44,243.34,154.92,243.34,151.39z"/>
	<path class="st8" d="M265.01,151.39c3.61,0,7.22,0,10.84,0c0,3.29,0,6.59,0,10.36c-3.38,0-6.8,0-10.84,0
		C265.01,158.44,265.01,154.92,265.01,151.39z"/>
	<circle class="st8" cx="259.59" cy="145.97" r="7.66"/>
	<circle class="st15" cx="15.78" cy="118.88" r="7.66"/>
	<circle class="st15" cx="703.87" cy="43.03" r="7.66"/>
	<path class="st3" d="M546.49,107.79c-3.23,0-6.72,0-10.38,0c0-3.44,0-6.62,0-10.2c3.32,0,6.72,0,10.38,0
		C546.49,101.07,546.49,104.56,546.49,107.79z"/>
	<path class="st3" d="M514.5,107.79c0-3.23,0-6.72,0-10.38c3.44,0,6.62,0,10.2,0c0,3.32,0,6.71,0,10.38
		C521.22,107.79,517.73,107.79,514.5,107.79z"/>
</g>
</svg>
